<?xml version="1.0" encoding="UTF-8" standalone="no"?><!-- Generator: Gravit.io --><svg xmlns="http://www.w3.org/2000/svg" xmlns:xlink="http://www.w3.org/1999/xlink" style="isolation:isolate" viewBox="0 0 120 120" width="120pt" height="120pt"><defs><clipPath id="_clipPath_09wWJqG28E9UC9obPTn5g4L4KMwS4GhX"><rect width="120" height="120"/></clipPath></defs><g clip-path="url(#_clipPath_09wWJqG28E9UC9obPTn5g4L4KMwS4GhX)"><g><g><g><defs><filter id="81BHlz4tR4SBBwwOMWAGH9l7Ahc8PbRp" x="-200%" y="-200%" width="400%" height="400%" filterUnits="objectBoundingBox" color-interpolation-filters="sRGB"><feGaussianBlur xmlns="http://www.w3.org/2000/svg" in="SourceGraphic" stdDeviation="2.146804531419514"/><feOffset xmlns="http://www.w3.org/2000/svg" dx="0" dy="0" result="pf_100_offsetBlur"/><feFlood xmlns="http://www.w3.org/2000/svg" flood-color="#000000" flood-opacity="0.65"/><feComposite xmlns="http://www.w3.org/2000/svg" in2="pf_100_offsetBlur" operator="in" result="pf_100_dropShadow"/><feBlend xmlns="http://www.w3.org/2000/svg" in="SourceGraphic" in2="pf_100_dropShadow" mode="normal"/></filter></defs><g filter="url(#81BHlz4tR4SBBwwOMWAGH9l7Ahc8PbRp)"><path d=" M 106.974 15.806 C 101.549 8.837 94.022 5 85.781 5 C 74.191 5 66.853 12.835 62.738 19.409 C 61.671 21.115 60.762 22.825 60 24.434 C 59.238 22.825 58.33 21.115 57.262 19.409 C 53.147 12.835 45.809 5 34.219 5 C 25.978 5 18.451 8.838 13.025 15.806 C 7.85 22.453 5 31.356 5 40.874 C 5 51.234 8.573 60.87 16.246 71.199 C 23.103 80.43 32.968 89.946 44.392 100.964 C 48.648 105.07 53.05 109.316 57.737 113.957 L 57.877 114.097 C 58.485 114.699 59.242 115 60 115 C 60.758 115 61.515 114.699 62.123 114.097 L 62.263 113.957 C 66.95 109.316 71.352 105.07 75.609 100.964 C 87.032 89.946 96.897 80.431 103.754 71.199 C 111.427 60.87 115 51.234 115 40.874 C 115 31.356 112.15 22.453 106.974 15.806 Z  M 71.428 95.411 C 67.759 98.951 63.982 102.593 60 106.512 C 56.018 102.594 52.241 98.951 48.571 95.411 C 26.215 73.847 11.445 59.601 11.445 40.874 C 11.445 33.133 13.724 25.943 17.861 20.63 C 22.046 15.255 27.855 12.296 34.219 12.296 C 43.055 12.296 48.767 18.457 52.003 23.627 C 54.905 28.263 56.419 32.936 56.936 34.73 C 57.368 36.232 58.605 37.248 60 37.248 C 61.395 37.248 62.632 36.232 63.064 34.73 C 63.581 32.936 65.095 28.263 67.997 23.626 C 71.233 18.457 76.945 12.296 85.781 12.296 C 92.145 12.296 97.954 15.255 102.139 20.63 C 106.276 25.943 108.555 33.133 108.555 40.874 C 108.555 59.601 93.785 73.847 71.428 95.411 Z " fill="rgb(106,0,158)"/></g></g></g></g></g></svg>