<?xml version="1.0" encoding="UTF-8" standalone="no"?><!-- Generator: Gravit.io --><svg xmlns="http://www.w3.org/2000/svg" xmlns:xlink="http://www.w3.org/1999/xlink" style="isolation:isolate" viewBox="0 0 20 20" width="20pt" height="20pt"><defs><clipPath id="_clipPath_Sn7r3S4UaE1qRvMhUtyi0RNFIByz09bz"><rect width="20" height="20"/></clipPath></defs><g clip-path="url(#_clipPath_Sn7r3S4UaE1qRvMhUtyi0RNFIByz09bz)"><rect width="20" height="20" style="fill:rgba(0,0,0,0)" fill-opacity="0"/><clipPath id="_clipPath_xBb26qkuTbm36GJboMZ9ZkUMFys8My70"><rect x="0" y="0" width="20" height="20" transform="matrix(1,0,0,1,0,0)" fill="#E11481"/></clipPath><g clip-path="url(#_clipPath_xBb26qkuTbm36GJboMZ9ZkUMFys8My70)"><path d=" M 15.557 0.38 L 4.443 0.38 C 2.203 0.38 0.38 2.203 0.38 4.443 L 0.38 15.557 C 0.38 17.797 2.203 19.62 4.443 19.62 L 15.557 19.62 C 17.797 19.62 19.62 17.797 19.62 15.557 L 19.62 4.443 C 19.62 2.203 17.797 0.38 15.557 0.38 Z  M 18.641 15.557 C 18.641 17.258 17.258 18.641 15.557 18.641 L 4.443 18.641 C 2.742 18.641 1.359 17.258 1.359 15.557 L 1.359 4.443 C 1.359 2.742 2.742 1.359 4.443 1.359 L 15.557 1.359 C 17.258 1.359 18.641 2.742 18.641 4.443 L 18.641 15.557 L 18.641 15.557 L 18.641 15.557 Z " fill="#E11481"/><path d=" M 10 4.946 C 7.213 4.946 4.946 7.213 4.946 10 C 4.946 12.787 7.213 15.054 10 15.054 C 12.787 15.054 15.054 12.787 15.054 10 C 15.054 7.213 12.787 4.946 10 4.946 Z  M 10 14.076 C 7.752 14.076 5.924 12.247 5.924 10 C 5.924 7.753 7.753 5.924 10 5.924 C 12.247 5.924 14.076 7.753 14.076 10 C 14.076 12.247 12.248 14.076 10 14.076 Z " fill="#E11481"/><circle vector-effect="non-scaling-stroke" cx="15.217363281249959" cy="4.130429687499939" r="1.3043554687499999" fill="#E11481"/></g></g></svg>