<?xml version="1.0" encoding="UTF-8" standalone="no"?><!-- Generator: Gravit.io --><svg xmlns="http://www.w3.org/2000/svg" xmlns:xlink="http://www.w3.org/1999/xlink" style="isolation:isolate" viewBox="0 0 2061 1200" width="2061pt" height="1200pt"><defs><clipPath id="_clipPath_QQF71IbVM6SLfUe7UJbYM0dfucP8pfg2"><rect width="2061" height="1200"/></clipPath></defs><g clip-path="url(#_clipPath_QQF71IbVM6SLfUe7UJbYM0dfucP8pfg2)"><g><g><path d=" M 1 1 Q 5.293 1 9 1 C 8.519 7.362 11.549 19.725 14 40 C 23.563 83.121 38.906 134.131 60 193 C 65.862 210.336 70.205 229.013 73 249 C 74.072 279.5 69.427 303.646 67 323 C 63.311 343.125 64.991 359.68 64 371 C 64.258 400.888 70.298 438.928 82 485 C 79.37 489.238 72.38 478.915 65 460 C 61.654 439.204 57.974 414.197 56 384.971 C 54.781 366.923 54.992 347.267 54 326 C 53.579 293.039 51.589 264.382 48 240 C 40.627 200.067 32.304 166.41 23 139 C 7.633 84.515 1.017 39.232 1 1 Z " fill="rgb(0,0,0)" vector-effect="non-scaling-stroke" stroke-width="1" stroke="rgb(0,0,0)" stroke-linejoin="miter" stroke-linecap="square" stroke-miterlimit="3"/><path d=" M 118 140 C 125.185 149.721 128.862 154.731 131 161 C 134.284 169.405 136.548 177.067 137.487 183.769 C 140.363 195.808 142.783 204.952 143 210 C 144.578 226.057 147.285 239.431 151 250 C 158.021 267.292 167.364 279.302 179 286 C 184.141 288.539 190.161 290.225 197 291 C 186.15 282.656 178.493 275.999 174 271 C 164.908 263.585 158.615 251.292 155 236 C 152.682 230.527 151.234 222.758 150.366 212.733 C 149.281 205.602 147.876 197.703 146 189 C 142.37 176.833 137.047 164.509 130 152 L 118 140 Z " fill="rgb(55,52,53)" vector-effect="non-scaling-stroke" stroke-width="1" stroke="rgb(0,0,0)" stroke-linejoin="miter" stroke-linecap="square" stroke-miterlimit="3"/><path d=" M 256 128 C 269.909 126.478 281.586 126.488 291 128 C 302.028 130.356 310.371 134.366 316 140 C 323.144 146.846 328.154 155.856 331 167 C 332.942 176.075 333.618 184.418 333 192 C 335.63 185.317 336.983 177.004 337 167 C 336.858 152.992 332.535 142.669 324 134 C 314.667 127.167 303.677 123.177 291 122 C 280.496 121.078 268.849 123.098 256 128 Z " fill="rgb(0,0,0)" vector-effect="non-scaling-stroke" stroke-width="1" stroke="rgb(0,0,0)" stroke-linejoin="miter" stroke-linecap="square" stroke-miterlimit="3"/><path d=" M 314 213 C 309.475 214.553 304.087 219.529 298 224 C 286.896 233.928 277.17 244.638 280 249 C 280.74 251.823 282.437 254.187 285 256 C 287.215 257.271 290.225 258.281 294 259 C 291.313 254.688 289.38 250.649 290 247 C 290.345 241.473 294.698 235.16 301 228 L 314 213 Z " fill="rgb(0,0,0)" vector-effect="non-scaling-stroke" stroke-width="1" stroke="rgb(0,0,0)" stroke-linejoin="miter" stroke-linecap="square" stroke-miterlimit="3"/><path d=" M 97 267 C 97.7 287.587 96.044 302.93 94 315 C 91.132 335.556 86.162 354.586 79 372 L 66 408 C 65.662 432.495 69.348 457.515 79 483 C 86.515 501.375 101.192 513.385 123 519 C 135.5 521.505 147.176 521.515 158 519 C 172.906 514.905 184.593 507.258 193 496 C 172.931 509.691 152.961 514.054 133 509 C 111.52 503.227 95.53 488.237 85 466 C 79.844 446.127 78.904 427.521 82 408 C 86.374 387.031 91.05 368.041 96 351 C 99.487 334.698 101.497 319.708 102 306 C 102.076 289.277 101.772 276.974 97 267 Z " fill="rgb(0,0,0)" vector-effect="non-scaling-stroke" stroke-width="1" stroke="rgb(0,0,0)" stroke-linejoin="miter" stroke-linecap="square" stroke-miterlimit="3"/><path d=" M 80 487 C 78.554 488.455 78.564 490.131 78 492 L 93 527 C 103.023 548.177 116.366 570.521 133 594 L 157.159 623.299 C 167.572 633.117 175.206 642.371 180 651 C 184.013 659.804 187.376 667.5 188 674 C 189.347 703.263 189.023 728.94 187 751 C 184.745 777.788 189.108 808.152 198 842 C 207.252 874.467 224.595 908.144 250 943 C 269.651 968.387 288.661 989.73 307 1007 C 291.543 985.653 273.886 960.663 256 932 C 239.1 902.52 225.786 871.54 214 839 C 206.5 816.854 203.177 794.531 204 772 C 210.083 731.149 216.964 703.269 222.544 688.259 C 223.355 681.065 223.508 675.646 223 672 C 218.892 660.605 211.031 650.006 198.592 640.09 C 194.451 635.732 189.938 631.369 185 627 C 159.085 606.767 134.438 577.787 111 540 C 102.389 525.301 94.066 509.311 86 492 L 80 487 Z " fill="rgb(0,0,0)" vector-effect="non-scaling-stroke" stroke-width="1" stroke="rgb(0,0,0)" stroke-linejoin="miter" stroke-linecap="square" stroke-miterlimit="3"/><path d=" M 323 799 C 345.825 809.012 363.845 821.365 379 836 C 392.193 850.524 405.203 867.867 418 888 C 433.245 912.245 443.932 937.265 452 963 L 465 1004 C 461.495 976.348 456.838 953.691 451 936 C 436.343 900.075 426.02 874.085 416 858 C 405.996 845.032 395.006 833.042 383 822 C 361.122 808.292 342.465 799.969 323 799 Z " fill="rgb(0,0,0)" vector-effect="non-scaling-stroke" stroke-width="1" stroke="rgb(0,0,0)" stroke-linejoin="miter" stroke-linecap="square" stroke-miterlimit="3"/><path d=" M 446 762 C 429.802 794.12 414.155 818.14 399 836 L 409 850 C 413.657 843.714 419.307 836.758 425 826 C 425.857 824.338 427.331 821.698 428 820 C 436.265 801.238 442.275 782.582 446 762 Z " fill="rgb(0,0,0)" vector-effect="non-scaling-stroke" stroke-width="1" stroke="rgb(0,0,0)" stroke-linejoin="miter" stroke-linecap="square" stroke-miterlimit="3"/></g><g><path d=" M 682 272 L 658 288 C 647.766 298.398 635.776 308.408 624 316 C 592.313 333.282 560.019 341.322 525 340 C 482.414 338.885 444.424 339.562 411 342 C 396.447 344.486 384.457 349.162 375 354 C 364.442 359.963 356.785 370.64 352 386 C 371.446 380.709 388.799 376.729 404 374 C 414.504 371.952 432.898 370.891 459.144 370.776 C 475.602 371.317 492.564 370.736 510 369 C 551.186 365.721 585.863 357.731 614 345 C 638.917 334.208 658.594 317.884 673 296 L 682 272 Z " fill="rgb(236,38,143)"/><path d=" M 445 286 L 416 306 L 377 335 C 367.669 343.877 360.679 350.887 356 360 C 352.495 366.478 349.515 375.832 349 386 C 351.33 397.271 356.007 408.281 361 419 C 368.818 437.982 369.828 457.658 364 478 C 354.86 491.54 343.214 504.227 329 516 C 313.399 523.8 296.076 525.476 277 521 C 260.803 513.882 245.48 508.225 231 504 L 179 488 L 251 495 C 260.276 497.597 275.003 499.323 291 500 C 306.18 499.646 318.856 495.656 329 488 C 337.613 480.889 340.956 469.899 341 455 C 339.47 439.271 334.49 422.291 326 404 C 320.251 386.016 320.928 370.693 328 358 C 334.53 345.559 345.207 334.569 360 325 C 389.07 310.287 417.413 297.297 445 286 Z " fill="rgb(236,38,143)"/><path d=" M 364 478 C 362.825 478.635 358.905 493.381 354 518 C 353.328 540.995 366.348 556.348 383 560 C 424.652 564.652 453.358 571.358 479 582 C 494.667 589.333 509.343 600.01 523 614 C 539.167 634.119 551.844 655.462 561 678 C 568.061 700.411 572.071 725.421 573 753 C 573.351 787.043 570.361 824.386 564 865 C 555.498 911.621 544.841 955.631 532 997 L 508 1062 C 510.874 1022.367 513.218 997.377 515 987 C 519.413 953.728 522.786 917.768 527 879 C 530.334 832 530.344 786.01 527 741 C 523.139 709.176 514.149 680.186 500 654 C 485.003 629.164 465.346 611.841 441 602 C 424.108 596.67 400.784 593.346 371 592 C 346.59 592.893 331.934 579.236 327 551 C 325.799 539.007 326.486 527.027 329 515 Q 366.685 476.55 364 478 Z " fill="rgb(236,38,143)"/></g></g><defs><filter id="QVdh3ve81jUwQMq9BB6y7e5L4oecsQyw" x="-200%" y="-200%" width="400%" height="400%" filterUnits="objectBoundingBox" color-interpolation-filters="sRGB"><feGaussianBlur xmlns="http://www.w3.org/2000/svg" in="SourceGraphic" stdDeviation="2.146804531419514"/><feOffset xmlns="http://www.w3.org/2000/svg" dx="-5" dy="10" result="pf_100_offsetBlur"/><feFlood xmlns="http://www.w3.org/2000/svg" flood-color="#6A009E" flood-opacity="1"/><feComposite xmlns="http://www.w3.org/2000/svg" in2="pf_100_offsetBlur" operator="in" result="pf_100_dropShadow"/><feBlend xmlns="http://www.w3.org/2000/svg" in="SourceGraphic" in2="pf_100_dropShadow" mode="normal" result="_out_RAUofvXhZozS51KZ9yiwkX7N35bAEUeF"/><feOffset xmlns="http://www.w3.org/2000/svg" in="_out_RAUofvXhZozS51KZ9yiwkX7N35bAEUeF" dx="-10" dy="0"/><feGaussianBlur xmlns="http://www.w3.org/2000/svg" stdDeviation="2.146804531419514" result="pf_101_offsetBlur"/><feComposite xmlns="http://www.w3.org/2000/svg" in="_out_RAUofvXhZozS51KZ9yiwkX7N35bAEUeF" in2="pf_101_offsetBlur" result="pf_101_inverse" operator="out"/><feFlood xmlns="http://www.w3.org/2000/svg" flood-color="#F9C2DF" flood-opacity="1" result="pf_101_color"/><feComposite xmlns="http://www.w3.org/2000/svg" in="pf_101_color" in2="pf_101_inverse" operator="in" result="pf_101_shadow"/><feComposite xmlns="http://www.w3.org/2000/svg" in="pf_101_shadow" in2="_out_RAUofvXhZozS51KZ9yiwkX7N35bAEUeF" operator="over" result="_out_0YoBssnwxBTKcGTN4x12DwwwNTWOqZDl"/><feOffset xmlns="http://www.w3.org/2000/svg" in="_out_0YoBssnwxBTKcGTN4x12DwwwNTWOqZDl" dx="-5" dy="0"/><feGaussianBlur xmlns="http://www.w3.org/2000/svg" stdDeviation="2.146804531419514" result="pf_102_offsetBlur"/><feComposite xmlns="http://www.w3.org/2000/svg" in="_out_0YoBssnwxBTKcGTN4x12DwwwNTWOqZDl" in2="pf_102_offsetBlur" result="pf_102_inverse" operator="out"/><feFlood xmlns="http://www.w3.org/2000/svg" flood-color="#EC268F" flood-opacity="1" result="pf_102_color"/><feComposite xmlns="http://www.w3.org/2000/svg" in="pf_102_color" in2="pf_102_inverse" operator="in" result="pf_102_shadow"/><feComposite xmlns="http://www.w3.org/2000/svg" in="pf_102_shadow" in2="_out_0YoBssnwxBTKcGTN4x12DwwwNTWOqZDl" operator="over" result="_out_QL4wJAKJr6tF9K1wVonCDqu1Mgp88lvI"/><feMerge><feMergeNode in="_out_QL4wJAKJr6tF9K1wVonCDqu1Mgp88lvI"/></feMerge></filter></defs><g filter="url(#QVdh3ve81jUwQMq9BB6y7e5L4oecsQyw)"><path d=" M 551.4 630.2 L 551.4 630.2 Q 518.95 630.2 501.625 612.325 L 501.625 612.325 L 501.625 612.325 Q 484.3 594.45 484.3 566.4 L 484.3 566.4 L 484.3 566.4 Q 484.3 533.95 505.75 496.55 L 505.75 496.55 L 505.75 496.55 Q 527.2 459.15 559.925 433.575 L 559.925 433.575 L 559.925 433.575 Q 592.65 408 624 408 L 624 408 L 624 408 Q 658.1 408 658.1 441.55 L 658.1 441.55 L 658.1 441.55 Q 658.1 468.5 637.75 491.875 L 637.75 491.875 L 637.75 491.875 Q 617.4 515.25 585.5 530.1 L 585.5 530.1 L 585.5 530.1 Q 553.6 544.95 521.7 548.25 L 521.7 548.25 L 521.7 548.25 Q 519.5 557.6 519.5 568.05 L 519.5 568.05 L 519.5 568.05 Q 519.5 587.85 529.4 601.05 L 529.4 601.05 L 529.4 601.05 Q 539.3 614.25 562.95 614.25 L 562.95 614.25 L 562.95 614.25 Q 596.5 614.25 630.6 586.2 L 630.6 586.2 L 630.6 586.2 Q 664.7 558.15 686.15 516.9 L 686.15 516.9 L 692.75 521.85 L 692.75 521.85 Q 670.75 570.8 631.7 600.5 L 631.7 600.5 L 631.7 600.5 Q 592.65 630.2 551.4 630.2 L 551.4 630.2 L 551.4 630.2 Z  M 524.45 537.8 L 524.45 537.8 Q 547.55 529.55 572.85 514.7 L 572.85 514.7 L 572.85 514.7 Q 598.15 499.85 616.025 479.775 L 616.025 479.775 L 616.025 479.775 Q 633.9 459.7 633.9 437.7 L 633.9 437.7 L 633.9 437.7 Q 633.9 431.1 631.425 428.075 L 631.425 428.075 L 631.425 428.075 Q 628.95 425.05 622.35 425.05 L 622.35 425.05 L 622.35 425.05 Q 605.3 425.05 585.225 442.1 L 585.225 442.1 L 585.225 442.1 Q 565.15 459.15 548.375 485.55 L 548.375 485.55 L 548.375 485.55 Q 531.6 511.95 524.45 537.8 L 524.45 537.8 L 524.45 537.8 Z  M 852.8 617 L 852.8 617 Q 834.1 617 824.2 607.375 L 824.2 607.375 L 824.2 607.375 Q 814.3 597.75 814.3 581.8 L 814.3 581.8 L 814.3 581.8 Q 814.3 574.65 816.775 565.025 L 816.775 565.025 L 816.775 565.025 Q 819.25 555.4 822 546.05 L 822 546.05 L 822 546.05 Q 825.3 536.15 827.775 525.15 L 827.775 525.15 L 827.775 525.15 Q 830.25 514.15 830.25 505.35 L 830.25 505.35 L 830.25 505.35 Q 830.25 478.4 808.25 478.4 L 808.25 478.4 L 808.25 478.4 Q 787.35 478.4 764.525 500.4 L 764.525 500.4 L 764.525 500.4 Q 741.7 522.4 723.825 549.35 L 723.825 549.35 L 723.825 549.35 Q 705.95 576.3 683.4 614.25 L 683.4 614.25 L 683.4 614.25 Q 674.05 614.25 666.35 611.225 L 666.35 611.225 L 666.35 611.225 Q 658.65 608.2 654.25 602.15 L 654.25 602.15 L 654.25 602.15 Q 654.25 599.4 661.4 582.35 L 661.4 582.35 L 661.4 582.35 Q 675.15 547.15 683.95 518.275 L 683.95 518.275 L 683.95 518.275 Q 692.75 489.4 693.3 466.85 L 693.3 466.85 L 693.3 466.85 Q 697.15 462.45 704.3 458.875 L 704.3 458.875 L 704.3 458.875 Q 711.45 455.3 718.6 455.3 L 718.6 455.3 L 718.6 455.3 Q 733.45 455.3 733.45 469.6 L 733.45 469.6 L 733.45 469.6 Q 733.45 477.85 728.5 498.475 L 728.5 498.475 L 728.5 498.475 Q 723.55 519.1 715.85 542.2 L 715.85 542.2 L 715.85 542.2 Q 742.25 501.5 771.95 473.45 L 771.95 473.45 L 771.95 473.45 Q 801.65 445.4 830.25 445.4 L 830.25 445.4 L 830.25 445.4 Q 850.6 445.4 860.775 459.975 L 860.775 459.975 L 860.775 459.975 Q 870.95 474.55 870.95 494.9 L 870.95 494.9 L 870.95 494.9 Q 870.95 507 867.925 518 L 867.925 518 L 867.925 518 Q 864.9 529 858.85 543.3 L 858.85 543.3 L 858.85 543.3 Q 853.9 555.4 851.15 564.2 L 851.15 564.2 L 851.15 564.2 Q 848.4 573 848.4 581.8 L 848.4 581.8 L 848.4 581.8 Q 848.4 602.7 864.9 602.7 L 864.9 602.7 L 864.9 602.7 Q 883.6 602.7 903.675 577.95 L 903.675 577.95 L 903.675 577.95 Q 923.75 553.2 941.9 516.9 L 941.9 516.9 L 947.95 524.05 L 947.95 524.05 Q 908.35 617 852.8 617 L 852.8 617 L 852.8 617 Z  M 989.2 634.05 L 989.2 634.05 Q 953.45 634.05 936.95 612.6 L 936.95 612.6 L 936.95 612.6 Q 920.45 591.15 920.45 562 L 920.45 562 L 920.45 562 Q 920.45 540 928.15 530.925 L 928.15 530.925 L 928.15 530.925 Q 935.85 521.85 944.925 518 L 944.925 518 L 944.925 518 Q 954 514.15 955.65 512.5 L 955.65 512.5 L 955.65 512.5 Q 990.85 474 1010.1 432.75 L 1010.1 432.75 L 1010.1 426.15 L 1010.1 426.15 Q 1010.1 407.45 1016.425 398.1 L 1016.425 398.1 L 1016.425 398.1 Q 1022.75 388.75 1031.55 388.75 L 1031.55 388.75 L 1031.55 388.75 Q 1035.95 388.75 1038.15 390.675 L 1038.15 390.675 L 1038.15 390.675 Q 1040.35 392.6 1040.35 395.9 L 1040.35 395.9 L 1040.35 395.9 Q 1040.35 398.1 1038.7 404.975 L 1038.7 404.975 L 1038.7 404.975 Q 1037.05 411.85 1037.05 420.1 L 1037.05 420.1 L 1037.05 420.1 Q 1037.05 431.1 1040.075 443.475 L 1040.075 443.475 L 1040.075 443.475 Q 1043.1 455.85 1049.7 475.65 L 1049.7 475.65 L 1049.7 475.65 Q 1057.4 499.3 1061.525 516.9 L 1061.525 516.9 L 1061.525 516.9 Q 1065.65 534.5 1065.65 552.65 L 1065.65 552.65 L 1065.65 552.65 Q 1065.65 566.95 1062.35 579.6 L 1062.35 579.6 L 1062.35 579.6 Q 1082.15 576.3 1099.2 561.725 L 1099.2 561.725 L 1099.2 561.725 Q 1116.25 547.15 1131.65 517.45 L 1131.65 517.45 L 1136.6 522.95 L 1136.6 522.95 Q 1126.7 551.55 1106.35 568.05 L 1106.35 568.05 L 1106.35 568.05 Q 1086 584.55 1059.6 588.4 L 1059.6 588.4 L 1059.6 588.4 Q 1051.35 610.95 1032.65 622.5 L 1032.65 622.5 L 1032.65 622.5 Q 1013.95 634.05 989.2 634.05 L 989.2 634.05 L 989.2 634.05 Z  M 1027.7 579.05 L 1027.7 579.05 Q 1029.9 564.75 1029.9 553.2 L 1029.9 553.2 L 1029.9 553.2 Q 1029.9 536.7 1027.15 520.2 L 1027.15 520.2 L 1027.15 520.2 Q 1024.4 503.7 1018.9 482.25 L 1018.9 482.25 L 1018.9 482.25 Q 1013.95 460.25 1012.85 453.65 L 1012.85 453.65 L 1012.85 453.65 Q 984.8 499.85 959.5 525.15 L 959.5 525.15 L 959.5 525.15 Q 968.3 544.4 986.175 559.25 L 986.175 559.25 L 986.175 559.25 Q 1004.05 574.1 1027.7 579.05 L 1027.7 579.05 L 1027.7 579.05 Z  M 990.3 614.8 L 990.3 614.8 Q 1015.6 614.8 1024.95 587.85 L 1024.95 587.85 L 1024.95 587.85 Q 1002.95 583.45 984.8 570.525 L 984.8 570.525 L 984.8 570.525 Q 966.65 557.6 957.3 542.2 L 957.3 542.2 L 957.3 542.2 Q 945.2 542.75 945.2 561.45 L 945.2 561.45 L 945.2 561.45 Q 945.2 582.35 957.575 598.575 L 957.575 598.575 L 957.575 598.575 Q 969.95 614.8 990.3 614.8 L 990.3 614.8 L 990.3 614.8 Z  M 1162.45 622.5 L 1162.45 622.5 Q 1144.3 622.5 1132.75 606.275 L 1132.75 606.275 L 1132.75 606.275 Q 1121.2 590.05 1121.2 566.95 L 1121.2 566.95 L 1121.2 566.95 Q 1121.2 546.6 1129.725 516.625 L 1129.725 516.625 L 1129.725 516.625 Q 1138.25 486.65 1150.075 464.375 L 1150.075 464.375 L 1150.075 464.375 Q 1161.9 442.1 1169.6 442.1 L 1169.6 442.1 L 1169.6 442.1 Q 1172.9 442.1 1179.225 445.4 L 1179.225 445.4 L 1179.225 445.4 Q 1185.55 448.7 1189.95 453.1 L 1189.95 453.1 L 1189.95 453.1 Q 1178.4 471.25 1165.75 505.075 L 1165.75 505.075 L 1165.75 505.075 Q 1153.1 538.9 1153.1 563.65 L 1153.1 563.65 L 1153.1 563.65 Q 1153.1 576.3 1157.225 588.4 L 1157.225 588.4 L 1157.225 588.4 Q 1161.35 600.5 1172.9 600.5 L 1172.9 600.5 L 1172.9 600.5 Q 1192.15 600.5 1214.975 565.025 L 1214.975 565.025 L 1214.975 565.025 Q 1237.8 529.55 1264.2 475.1 L 1264.2 475.1 L 1273 456.95 L 1273 456.95 Q 1299.4 461.9 1299.4 471.25 L 1299.4 471.25 L 1299.4 471.25 Q 1299.4 472.35 1296.925 478.675 L 1296.925 478.675 L 1296.925 478.675 Q 1294.45 485 1292.25 489.95 L 1292.25 489.95 L 1292.25 489.95 Q 1279.6 518 1271.075 542.475 L 1271.075 542.475 L 1271.075 542.475 Q 1262.55 566.95 1262.55 584 L 1262.55 584 L 1262.55 584 Q 1262.55 606 1280.7 606 L 1280.7 606 L 1280.7 606 Q 1292.8 606 1309.3 595.275 L 1309.3 595.275 L 1309.3 595.275 Q 1325.8 584.55 1342.85 564.2 L 1342.85 564.2 L 1342.85 564.2 Q 1359.9 543.85 1372.55 516.9 L 1372.55 516.9 L 1379.7 521.85 L 1379.7 521.85 Q 1368.15 551 1349.725 573.825 L 1349.725 573.825 L 1349.725 573.825 Q 1331.3 596.65 1309.85 609.575 L 1309.85 609.575 L 1309.85 609.575 Q 1288.4 622.5 1269.15 622.5 L 1269.15 622.5 L 1269.15 622.5 Q 1230.65 622.5 1230.65 581.8 L 1230.65 581.8 L 1230.65 581.8 Q 1230.65 570.8 1234.5 554.3 L 1234.5 554.3 L 1234.5 554.3 Q 1216.9 585.65 1199.3 604.075 L 1199.3 604.075 L 1199.3 604.075 Q 1181.7 622.5 1162.45 622.5 L 1162.45 622.5 L 1162.45 622.5 Z  M 1388.5 631.85 L 1388.5 631.85 Q 1370.35 631.85 1359.075 620.025 L 1359.075 620.025 L 1359.075 620.025 Q 1347.8 608.2 1347.8 586.2 L 1347.8 586.2 L 1347.8 586.2 Q 1347.8 553.75 1371.175 513.6 L 1371.175 513.6 L 1371.175 513.6 Q 1394.55 473.45 1430.3 445.4 L 1430.3 445.4 L 1430.3 445.4 Q 1466.05 417.35 1500.15 417.35 L 1500.15 417.35 L 1500.15 417.35 Q 1521.6 417.35 1535.9 428.9 L 1535.9 428.9 L 1535.9 428.9 Q 1550.2 440.45 1550.2 458.6 L 1550.2 458.6 L 1550.2 458.6 Q 1550.2 471.25 1543.05 476.75 L 1543.05 476.75 L 1543.05 476.75 Q 1535.9 482.25 1523.25 482.25 L 1523.25 482.25 L 1523.25 482.25 Q 1526 472.35 1526 463 L 1526 463 L 1526 463 Q 1526 449.25 1519.4 440.725 L 1519.4 440.725 L 1519.4 440.725 Q 1512.8 432.2 1499.05 432.2 L 1499.05 432.2 L 1499.05 432.2 Q 1474.85 432.2 1448.175 459.15 L 1448.175 459.15 L 1448.175 459.15 Q 1421.5 486.1 1403.625 523.5 L 1403.625 523.5 L 1403.625 523.5 Q 1385.75 560.9 1385.75 587.85 L 1385.75 587.85 L 1385.75 587.85 Q 1385.75 609.3 1400.6 609.3 L 1400.6 609.3 L 1400.6 609.3 Q 1422.6 609.3 1452.3 574.375 L 1452.3 574.375 L 1452.3 574.375 Q 1482 539.45 1516.1 489.4 L 1516.1 489.4 L 1516.1 489.4 Q 1523.25 490.5 1530.675 494.075 L 1530.675 494.075 L 1530.675 494.075 Q 1538.1 497.65 1538.1 503.15 L 1538.1 503.15 L 1538.1 503.15 Q 1538.1 507.55 1532.875 517.175 L 1532.875 517.175 L 1532.875 517.175 Q 1527.65 526.8 1526.55 528.45 L 1526.55 528.45 L 1526.55 528.45 Q 1517.2 544.4 1511.7 556.775 L 1511.7 556.775 L 1511.7 556.775 Q 1506.2 569.15 1506.2 579.6 L 1506.2 579.6 L 1506.2 579.6 Q 1506.2 588.95 1510.875 596.375 L 1510.875 596.375 L 1510.875 596.375 Q 1515.55 603.8 1524.9 603.8 L 1524.9 603.8 L 1524.9 603.8 Q 1540.85 603.8 1565.05 580.975 L 1565.05 580.975 L 1565.05 580.975 Q 1589.25 558.15 1612.9 516.9 L 1612.9 516.9 L 1618.4 522.4 L 1618.4 522.4 Q 1606.85 551.55 1588.7 574.375 L 1588.7 574.375 L 1588.7 574.375 Q 1570.55 597.2 1549.65 609.85 L 1549.65 609.85 L 1549.65 609.85 Q 1528.75 622.5 1509.5 622.5 L 1509.5 622.5 L 1509.5 622.5 Q 1490.25 622.5 1480.075 611.225 L 1480.075 611.225 L 1480.075 611.225 Q 1469.9 599.95 1469.9 584 L 1469.9 584 L 1469.9 584 Q 1469.9 576.85 1471.55 568.05 L 1471.55 568.05 L 1471.55 568.05 Q 1446.8 601.05 1427.275 616.45 L 1427.275 616.45 L 1427.275 616.45 Q 1407.75 631.85 1388.5 631.85 L 1388.5 631.85 L 1388.5 631.85 Z  M 1647.55 622.5 L 1647.55 622.5 Q 1625 622.5 1614.275 607.1 L 1614.275 607.1 L 1614.275 607.1 Q 1603.55 591.7 1603.55 565.85 L 1603.55 565.85 L 1603.55 565.85 Q 1603.55 516.35 1637.65 431.375 L 1637.65 431.375 L 1637.65 431.375 Q 1671.75 346.4 1713.825 278.2 L 1713.825 278.2 L 1713.825 278.2 Q 1755.9 210 1774.6 210 L 1774.6 210 L 1774.6 210 Q 1782.3 210 1787.525 223.475 L 1787.525 223.475 L 1787.525 223.475 Q 1792.75 236.95 1792.75 250.7 L 1792.75 250.7 L 1792.75 250.7 Q 1792.75 276 1772.125 325.225 L 1772.125 325.225 L 1772.125 325.225 Q 1751.5 374.45 1717.95 425.05 L 1717.95 425.05 L 1717.95 425.05 Q 1684.4 475.65 1646.45 507 L 1646.45 507 L 1646.45 507 Q 1639.3 538.9 1639.3 562.55 L 1639.3 562.55 L 1639.3 562.55 Q 1639.3 604.9 1663.5 604.9 L 1663.5 604.9 L 1663.5 604.9 Q 1683.85 604.9 1705.025 579.05 L 1705.025 579.05 L 1705.025 579.05 Q 1726.2 553.2 1742.7 516.9 L 1742.7 516.9 L 1750.95 521.3 L 1750.95 521.3 Q 1703.65 622.5 1647.55 622.5 L 1647.55 622.5 L 1647.55 622.5 Z  M 1651.4 488.3 L 1651.4 488.3 Q 1681.65 458.05 1710.525 412.125 L 1710.525 412.125 L 1710.525 412.125 Q 1739.4 366.2 1757.55 324.125 L 1757.55 324.125 L 1757.55 324.125 Q 1775.7 282.05 1775.7 263.35 L 1775.7 263.35 L 1775.7 263.35 Q 1775.7 254.55 1771.85 254.55 L 1771.85 254.55 L 1771.85 254.55 Q 1764.15 254.55 1740.225 292.225 L 1740.225 292.225 L 1740.225 292.225 Q 1716.3 329.9 1691 384.35 L 1691 384.35 L 1691 384.35 Q 1665.7 438.8 1651.4 488.3 L 1651.4 488.3 L 1651.4 488.3 Z  M 1755.35 760 L 1755.35 760 Q 1740.5 760 1730.6 752.3 L 1730.6 752.3 L 1730.6 752.3 Q 1720.7 744.6 1720.7 730.85 L 1720.7 730.85 L 1720.7 730.85 Q 1720.7 708.85 1734.725 692.075 L 1734.725 692.075 L 1734.725 692.075 Q 1748.75 675.3 1769.1 662.925 L 1769.1 662.925 L 1769.1 662.925 Q 1789.45 650.55 1827.4 631.3 L 1827.4 631.3 L 1827.4 631.3 Q 1843.9 588.95 1858.2 530.65 L 1858.2 530.65 L 1858.2 530.65 Q 1838.4 563.1 1818.6 581.8 L 1818.6 581.8 L 1818.6 581.8 Q 1798.8 600.5 1777.9 600.5 L 1777.9 600.5 L 1777.9 600.5 Q 1760.3 600.5 1747.1 588.95 L 1747.1 588.95 L 1747.1 588.95 Q 1733.9 577.4 1733.9 555.95 L 1733.9 555.95 L 1733.9 555.95 Q 1733.9 536.15 1742.7 507.55 L 1742.7 507.55 L 1742.7 507.55 Q 1751.5 478.95 1763.05 457.5 L 1763.05 457.5 L 1763.05 457.5 Q 1774.6 436.05 1782.3 436.05 L 1782.3 436.05 L 1782.3 436.05 Q 1787.25 436.05 1796.875 440.175 L 1796.875 440.175 L 1796.875 440.175 Q 1806.5 444.3 1806.5 448.7 L 1806.5 448.7 L 1806.5 448.7 Q 1795.5 464.65 1782.85 500.125 L 1782.85 500.125 L 1782.85 500.125 Q 1770.2 535.6 1770.2 556.5 L 1770.2 556.5 L 1770.2 556.5 Q 1770.2 578.5 1790 578.5 L 1790 578.5 L 1790 578.5 Q 1804.85 578.5 1824.925 558.15 L 1824.925 558.15 L 1824.925 558.15 Q 1845 537.8 1863.15 508.1 L 1863.15 508.1 L 1863.15 508.1 Q 1865.9 498.75 1868.65 482.8 L 1868.65 482.8 L 1868.65 482.8 Q 1870.85 472.35 1877.725 463.55 L 1877.725 463.55 L 1877.725 463.55 Q 1884.6 454.75 1896.7 454.75 L 1896.7 454.75 L 1896.7 454.75 Q 1901.65 454.75 1908.25 456.4 L 1908.25 456.4 L 1908.25 456.4 Q 1908.25 471.25 1895.875 517.45 L 1895.875 517.45 L 1895.875 517.45 Q 1883.5 563.65 1865.35 610.4 L 1865.35 610.4 L 1865.35 610.4 Q 1892.85 599.4 1917.05 576.025 L 1917.05 576.025 L 1917.05 576.025 Q 1941.25 552.65 1956.1 516.9 L 1956.1 516.9 L 1963.25 522.4 L 1963.25 522.4 Q 1942.9 586.75 1859.3 625.25 L 1859.3 625.25 L 1859.3 625.25 Q 1835.1 684.65 1808.425 722.325 L 1808.425 722.325 L 1808.425 722.325 Q 1781.75 760 1755.35 760 L 1755.35 760 L 1755.35 760 Z  M 1752.6 742.4 L 1752.6 742.4 Q 1758.65 742.4 1769.65 732.225 L 1769.65 732.225 L 1769.65 732.225 Q 1780.65 722.05 1794.4 700.05 L 1794.4 700.05 L 1794.4 700.05 Q 1808.15 678.05 1821.9 644.5 L 1821.9 644.5 L 1821.9 644.5 Q 1792.75 659.9 1775.975 670.625 L 1775.975 670.625 L 1775.975 670.625 Q 1759.2 681.35 1748.475 695.1 L 1748.475 695.1 L 1748.475 695.1 Q 1737.75 708.85 1737.75 725.9 L 1737.75 725.9 L 1737.75 725.9 Q 1737.75 731.4 1741.6 736.9 L 1741.6 736.9 L 1741.6 736.9 Q 1745.45 742.4 1752.6 742.4 L 1752.6 742.4 L 1752.6 742.4 Z " fill="rgb(236,38,143)"/></g><defs><filter id="lnpDVrEvUEainWaYTQpgY5EASiGTANqO" x="-200%" y="-200%" width="400%" height="400%" filterUnits="objectBoundingBox" color-interpolation-filters="sRGB"><feGaussianBlur xmlns="http://www.w3.org/2000/svg" in="SourceGraphic" stdDeviation="2.146804531419514"/><feOffset xmlns="http://www.w3.org/2000/svg" dx="-5" dy="10" result="pf_100_offsetBlur"/><feFlood xmlns="http://www.w3.org/2000/svg" flood-color="#6A009E" flood-opacity="1"/><feComposite xmlns="http://www.w3.org/2000/svg" in2="pf_100_offsetBlur" operator="in" result="pf_100_dropShadow"/><feBlend xmlns="http://www.w3.org/2000/svg" in="SourceGraphic" in2="pf_100_dropShadow" mode="normal" result="_out_W5UPDlSJxI0xC3Ok5Johq9tyjpxHYmVv"/><feOffset xmlns="http://www.w3.org/2000/svg" in="_out_W5UPDlSJxI0xC3Ok5Johq9tyjpxHYmVv" dx="-10" dy="0"/><feGaussianBlur xmlns="http://www.w3.org/2000/svg" stdDeviation="2.146804531419514" result="pf_101_offsetBlur"/><feComposite xmlns="http://www.w3.org/2000/svg" in="_out_W5UPDlSJxI0xC3Ok5Johq9tyjpxHYmVv" in2="pf_101_offsetBlur" result="pf_101_inverse" operator="out"/><feFlood xmlns="http://www.w3.org/2000/svg" flood-color="#F9C2DF" flood-opacity="1" result="pf_101_color"/><feComposite xmlns="http://www.w3.org/2000/svg" in="pf_101_color" in2="pf_101_inverse" operator="in" result="pf_101_shadow"/><feComposite xmlns="http://www.w3.org/2000/svg" in="pf_101_shadow" in2="_out_W5UPDlSJxI0xC3Ok5Johq9tyjpxHYmVv" operator="over" result="_out_OJajxvRbkuCIfLFtqkezzxlc2XKeWsd0"/><feOffset xmlns="http://www.w3.org/2000/svg" in="_out_OJajxvRbkuCIfLFtqkezzxlc2XKeWsd0" dx="-5" dy="0"/><feGaussianBlur xmlns="http://www.w3.org/2000/svg" stdDeviation="2.146804531419514" result="pf_102_offsetBlur"/><feComposite xmlns="http://www.w3.org/2000/svg" in="_out_OJajxvRbkuCIfLFtqkezzxlc2XKeWsd0" in2="pf_102_offsetBlur" result="pf_102_inverse" operator="out"/><feFlood xmlns="http://www.w3.org/2000/svg" flood-color="#EC268F" flood-opacity="1" result="pf_102_color"/><feComposite xmlns="http://www.w3.org/2000/svg" in="pf_102_color" in2="pf_102_inverse" operator="in" result="pf_102_shadow"/><feComposite xmlns="http://www.w3.org/2000/svg" in="pf_102_shadow" in2="_out_OJajxvRbkuCIfLFtqkezzxlc2XKeWsd0" operator="over" result="_out_EL74i1br6f3sDGhTpG4C8Q32EFvjoTxQ"/><feMerge><feMergeNode in="_out_EL74i1br6f3sDGhTpG4C8Q32EFvjoTxQ"/></feMerge></filter></defs><g filter="url(#lnpDVrEvUEainWaYTQpgY5EASiGTANqO)"><path d=" M 910.175 1025.15 L 910.175 1025.15 Q 884.975 1025.15 872.6 1016.6 L 872.6 1016.6 L 872.6 1016.6 Q 860.225 1008.05 860.225 989.15 L 860.225 989.15 L 860.225 989.15 Q 860.225 987.8 862.475 987.8 L 862.475 987.8 L 862.475 987.8 Q 864.275 987.8 873.275 990.05 L 873.275 990.05 L 873.275 990.05 Q 882.275 992.3 904.775 992.3 L 904.775 992.3 L 904.775 992.3 Q 954.725 992.3 995.9 977.225 L 995.9 977.225 L 995.9 977.225 Q 1037.075 962.15 1060.475 937.4 L 1060.475 937.4 L 1060.475 937.4 Q 1083.875 912.65 1083.875 885.65 L 1083.875 885.65 L 1083.875 885.65 Q 1083.875 852.8 1051.475 840.875 L 1051.475 840.875 L 1051.475 840.875 Q 1019.075 828.95 970.475 828.95 L 970.475 828.95 L 936.725 829.4 L 936.725 829.4 Q 929.975 852.35 917.375 898.25 L 917.375 898.25 L 917.375 898.25 Q 907.925 933.35 896.225 974.3 L 896.225 974.3 L 896.225 974.3 Q 884.975 974.3 877.325 968 L 877.325 968 L 877.325 968 Q 869.675 961.7 869.675 952.7 L 869.675 952.7 L 869.675 952.7 Q 869.675 946.85 872.375 938.3 L 872.375 938.3 L 872.375 938.3 Q 875.075 929.75 875.975 927.05 L 875.975 927.05 L 875.975 927.05 Q 889.925 880.25 918.05 802.175 L 918.05 802.175 L 918.05 802.175 Q 946.175 724.1 971.375 674.6 L 971.375 674.6 L 971.375 674.6 Q 944.825 679.1 919.175 694.4 L 919.175 694.4 L 919.175 694.4 Q 911.075 698.9 909.275 698.9 L 909.275 698.9 L 909.275 698.9 Q 905.675 698.9 900.275 694.4 L 900.275 694.4 L 900.275 694.4 Q 894.875 689.9 894.875 686.75 L 894.875 686.75 L 894.875 686.75 Q 924.575 674.6 947.3 668.3 L 947.3 668.3 L 947.3 668.3 Q 970.025 662 1001.525 662 L 1001.525 662 L 1001.525 662 Q 1042.925 662 1074.2 677.075 L 1074.2 677.075 L 1074.2 677.075 Q 1105.475 692.15 1105.475 733.55 L 1105.475 733.55 L 1105.475 733.55 Q 1105.475 773.6 1075.55 793.85 L 1075.55 793.85 L 1075.55 793.85 Q 1045.625 814.1 1002.425 821.3 L 1002.425 821.3 L 1002.425 821.3 Q 1105.025 827.6 1105.025 893.75 L 1105.025 893.75 L 1105.025 893.75 Q 1105.025 934.25 1072.175 964.175 L 1072.175 964.175 L 1072.175 964.175 Q 1039.325 994.1 993.2 1009.625 L 993.2 1009.625 L 993.2 1009.625 Q 947.075 1025.15 910.175 1025.15 L 910.175 1025.15 L 910.175 1025.15 Z  M 939.425 819.05 L 939.425 819.05 Q 997.475 817.25 1037.975 796.1 L 1037.975 796.1 L 1037.975 796.1 Q 1078.475 774.95 1078.475 729.95 L 1078.475 729.95 L 1078.475 729.95 Q 1078.475 671.45 1002.425 671.45 L 1002.425 671.45 L 1002.425 671.45 Q 996.575 671.45 993.875 671.9 L 993.875 671.9 L 993.875 671.9 Q 967.325 723.65 939.425 819.05 L 939.425 819.05 L 939.425 819.05 Z  M 1203.125 997.7 L 1203.125 997.7 Q 1187.825 997.7 1179.05 989.6 L 1179.05 989.6 L 1179.05 989.6 Q 1170.275 981.5 1170.275 968.45 L 1170.275 968.45 L 1170.275 968.45 Q 1170.275 953.15 1183.325 924.35 L 1183.325 924.35 L 1183.325 924.35 Q 1189.175 909.5 1192.1 900.725 L 1192.1 900.725 L 1192.1 900.725 Q 1195.025 891.95 1195.025 884.3 L 1195.025 884.3 L 1195.025 884.3 Q 1195.025 873.05 1189.85 866.525 L 1189.85 866.525 L 1189.85 866.525 Q 1184.675 860 1178.375 855.725 L 1178.375 855.725 L 1178.375 855.725 Q 1172.075 851.45 1169.825 850.1 L 1169.825 850.1 L 1169.825 850.1 Q 1159.925 875.3 1148.675 899.375 L 1148.675 899.375 L 1148.675 899.375 Q 1137.425 923.45 1129.775 936.5 L 1129.775 936.5 L 1125.725 928.85 L 1125.725 928.85 Q 1147.325 887 1162.175 843.35 L 1162.175 843.35 L 1162.175 843.35 Q 1157.675 838.85 1157.675 832.55 L 1157.675 832.55 L 1157.675 832.55 Q 1157.675 824.45 1161.05 817.25 L 1161.05 817.25 L 1161.05 817.25 Q 1164.425 810.05 1169.15 806 L 1169.15 806 L 1169.15 806 Q 1173.875 801.95 1176.575 801.95 L 1176.575 801.95 L 1176.575 801.95 Q 1182.875 801.95 1182.875 812.75 L 1182.875 812.75 L 1182.875 812.75 Q 1182.875 814.55 1180.625 820.85 L 1180.625 820.85 L 1180.625 820.85 Q 1178.375 827.15 1177.925 829.4 L 1177.925 829.4 L 1177.925 829.4 Q 1177.925 833.9 1181.75 837.725 L 1181.75 837.725 L 1181.75 837.725 Q 1185.575 841.55 1194.125 847.4 L 1194.125 847.4 L 1194.125 847.4 Q 1208.075 857.3 1215.95 866.975 L 1215.95 866.975 L 1215.95 866.975 Q 1223.825 876.65 1223.825 891.95 L 1223.825 891.95 L 1223.825 891.95 Q 1223.825 901.85 1220.675 911.525 L 1220.675 911.525 L 1220.675 911.525 Q 1217.525 921.2 1211.225 936.95 L 1211.225 936.95 L 1211.225 936.95 Q 1201.325 958.55 1201.325 968 L 1201.325 968 L 1201.325 968 Q 1201.325 981.5 1214.825 981.5 L 1214.825 981.5 L 1214.825 981.5 Q 1228.325 981.5 1243.85 970.7 L 1243.85 970.7 L 1243.85 970.7 Q 1259.375 959.9 1272.425 943.925 L 1272.425 943.925 L 1272.425 943.925 Q 1285.475 927.95 1291.325 914.45 L 1291.325 914.45 L 1297.175 918.95 L 1297.175 918.95 Q 1283.225 950 1256.675 973.85 L 1256.675 973.85 L 1256.675 973.85 Q 1230.125 997.7 1203.125 997.7 L 1203.125 997.7 L 1203.125 997.7 Z  M 1312.925 1000.4 L 1312.925 1000.4 Q 1294.475 1000.4 1285.925 989.15 L 1285.925 989.15 L 1285.925 989.15 Q 1277.375 977.9 1277.375 959.45 L 1277.375 959.45 L 1277.375 959.45 Q 1277.375 941 1285.025 920.75 L 1285.025 920.75 L 1285.025 920.75 Q 1292.675 900.5 1304.825 887 L 1304.825 887 L 1304.825 887 Q 1316.975 873.5 1329.125 873.5 L 1329.125 873.5 L 1329.125 873.5 Q 1333.175 873.5 1338.575 875.75 L 1338.575 875.75 L 1338.575 875.75 Q 1333.175 880.25 1325.525 895.55 L 1325.525 895.55 L 1325.525 895.55 Q 1317.875 910.85 1312.25 928.175 L 1312.25 928.175 L 1312.25 928.175 Q 1306.625 945.5 1306.625 956.3 L 1306.625 956.3 L 1306.625 956.3 Q 1306.625 981.95 1322.825 981.95 L 1322.825 981.95 L 1322.825 981.95 Q 1332.275 981.95 1345.325 972.05 L 1345.325 972.05 L 1345.325 972.05 Q 1358.375 962.15 1370.975 945.95 L 1370.975 945.95 L 1370.975 945.95 Q 1358.375 935.6 1351.4 918.95 L 1351.4 918.95 L 1351.4 918.95 Q 1344.425 902.3 1344.425 884.3 L 1344.425 884.3 L 1344.425 884.3 Q 1344.425 860.9 1356.35 844.25 L 1356.35 844.25 L 1356.35 844.25 Q 1368.275 827.6 1388.525 827.6 L 1388.525 827.6 L 1388.525 827.6 Q 1405.625 827.6 1412.6 836.825 L 1412.6 836.825 L 1412.6 836.825 Q 1419.575 846.05 1419.575 862.25 L 1419.575 862.25 L 1419.575 862.25 Q 1419.575 879.35 1411.25 900.725 L 1411.25 900.725 L 1411.25 900.725 Q 1402.925 922.1 1389.425 942.35 L 1389.425 942.35 L 1389.425 942.35 Q 1397.525 946.85 1406.525 946.85 L 1406.525 946.85 L 1406.525 946.85 Q 1419.575 946.85 1433.525 938.975 L 1433.525 938.975 L 1433.525 938.975 Q 1447.475 931.1 1454.675 914.45 L 1454.675 914.45 L 1460.075 918.95 L 1460.075 918.95 Q 1451.525 938.75 1435.775 948.2 L 1435.775 948.2 L 1435.775 948.2 Q 1420.025 957.65 1403.375 957.65 L 1403.375 957.65 L 1403.375 957.65 Q 1391.225 957.65 1381.775 953.15 L 1381.775 953.15 L 1381.775 953.15 Q 1365.575 974.3 1347.35 987.35 L 1347.35 987.35 L 1347.35 987.35 Q 1329.125 1000.4 1312.925 1000.4 L 1312.925 1000.4 L 1312.925 1000.4 Z  M 1379.075 934.25 L 1379.075 934.25 Q 1390.775 916.7 1397.975 898.475 L 1397.975 898.475 L 1397.975 898.475 Q 1405.175 880.25 1405.175 864.95 L 1405.175 864.95 L 1405.175 864.95 Q 1405.175 852.35 1401.35 846.05 L 1401.35 846.05 L 1401.35 846.05 Q 1397.525 839.75 1391.675 839.75 L 1391.675 839.75 L 1391.675 839.75 Q 1385.375 839.75 1378.85 845.825 L 1378.85 845.825 L 1378.85 845.825 Q 1372.325 851.9 1368.05 862.475 L 1368.05 862.475 L 1368.05 862.475 Q 1363.775 873.05 1363.775 885.65 L 1363.775 885.65 L 1363.775 885.65 Q 1363.775 899.6 1367.6 912.425 L 1367.6 912.425 L 1367.6 912.425 Q 1371.425 925.25 1379.075 934.25 L 1379.075 934.25 L 1379.075 934.25 Z  M 1591.475 995 L 1591.475 995 Q 1576.175 995 1568.075 987.125 L 1568.075 987.125 L 1568.075 987.125 Q 1559.975 979.25 1559.975 966.2 L 1559.975 966.2 L 1559.975 966.2 Q 1559.975 960.35 1562 952.475 L 1562 952.475 L 1562 952.475 Q 1564.025 944.6 1566.275 936.95 L 1566.275 936.95 L 1566.275 936.95 Q 1568.975 928.85 1571 919.85 L 1571 919.85 L 1571 919.85 Q 1573.025 910.85 1573.025 903.65 L 1573.025 903.65 L 1573.025 903.65 Q 1573.025 881.6 1555.025 881.6 L 1555.025 881.6 L 1555.025 881.6 Q 1537.925 881.6 1519.25 899.6 L 1519.25 899.6 L 1519.25 899.6 Q 1500.575 917.6 1485.95 939.65 L 1485.95 939.65 L 1485.95 939.65 Q 1471.325 961.7 1452.875 992.75 L 1452.875 992.75 L 1452.875 992.75 Q 1445.225 992.75 1438.925 990.275 L 1438.925 990.275 L 1438.925 990.275 Q 1432.625 987.8 1429.025 982.85 L 1429.025 982.85 L 1429.025 982.85 Q 1429.025 980.6 1434.875 966.65 L 1434.875 966.65 L 1434.875 966.65 Q 1446.125 937.85 1453.325 914.225 L 1453.325 914.225 L 1453.325 914.225 Q 1460.525 890.6 1460.975 872.15 L 1460.975 872.15 L 1460.975 872.15 Q 1464.125 868.55 1469.975 865.625 L 1469.975 865.625 L 1469.975 865.625 Q 1475.825 862.7 1481.675 862.7 L 1481.675 862.7 L 1481.675 862.7 Q 1493.825 862.7 1493.825 874.4 L 1493.825 874.4 L 1493.825 874.4 Q 1493.825 881.15 1489.775 898.025 L 1489.775 898.025 L 1489.775 898.025 Q 1485.725 914.9 1479.425 933.8 L 1479.425 933.8 L 1479.425 933.8 Q 1501.025 900.5 1525.325 877.55 L 1525.325 877.55 L 1525.325 877.55 Q 1549.625 854.6 1573.025 854.6 L 1573.025 854.6 L 1573.025 854.6 Q 1589.675 854.6 1598 866.525 L 1598 866.525 L 1598 866.525 Q 1606.325 878.45 1606.325 895.1 L 1606.325 895.1 L 1606.325 895.1 Q 1606.325 905 1603.85 914 L 1603.85 914 L 1603.85 914 Q 1601.375 923 1596.425 934.7 L 1596.425 934.7 L 1596.425 934.7 Q 1592.375 944.6 1590.125 951.8 L 1590.125 951.8 L 1590.125 951.8 Q 1587.875 959 1587.875 966.2 L 1587.875 966.2 L 1587.875 966.2 Q 1587.875 983.3 1601.375 983.3 L 1601.375 983.3 L 1601.375 983.3 Q 1616.675 983.3 1633.1 963.05 L 1633.1 963.05 L 1633.1 963.05 Q 1649.525 942.8 1664.375 913.1 L 1664.375 913.1 L 1669.325 918.95 L 1669.325 918.95 Q 1636.925 995 1591.475 995 L 1591.475 995 L 1591.475 995 Z  M 1653.575 1112 L 1653.575 1112 Q 1623.875 1112 1623.875 1089.05 L 1623.875 1089.05 L 1623.875 1089.05 Q 1623.875 1075.1 1633.775 1062.5 L 1633.775 1062.5 L 1633.775 1062.5 Q 1643.675 1049.9 1658.525 1039.325 L 1658.525 1039.325 L 1658.525 1039.325 Q 1673.375 1028.75 1699.475 1013 L 1699.475 1013 L 1699.475 1013 Q 1718.375 1002.2 1734.125 991.4 L 1734.125 991.4 L 1734.125 991.4 Q 1734.125 974.75 1727.15 961.25 L 1727.15 961.25 L 1727.15 961.25 Q 1720.175 947.75 1703.075 934.25 L 1703.075 934.25 L 1703.075 934.25 Q 1717.925 930.2 1729.175 918.95 L 1729.175 918.95 L 1729.175 918.95 Q 1740.425 907.7 1746.275 893.975 L 1746.275 893.975 L 1746.275 893.975 Q 1752.125 880.25 1752.125 868.1 L 1752.125 868.1 L 1752.125 868.1 Q 1752.125 857.75 1747.625 851 L 1747.625 851 L 1747.625 851 Q 1743.125 844.25 1734.575 844.25 L 1734.575 844.25 L 1734.575 844.25 Q 1720.625 844.25 1709.15 854.6 L 1709.15 854.6 L 1709.15 854.6 Q 1697.675 864.95 1688.675 880.925 L 1688.675 880.925 L 1688.675 880.925 Q 1679.675 896.9 1666.175 925.7 L 1666.175 925.7 L 1660.775 921.2 L 1660.775 921.2 Q 1672.475 890.15 1682.825 870.35 L 1682.825 870.35 L 1682.825 870.35 Q 1693.175 850.55 1707.35 838.85 L 1707.35 838.85 L 1707.35 838.85 Q 1721.525 827.15 1740.875 827.15 L 1740.875 827.15 L 1740.875 827.15 Q 1756.625 827.15 1767.425 837.275 L 1767.425 837.275 L 1767.425 837.275 Q 1778.225 847.4 1778.225 864.05 L 1778.225 864.05 L 1778.225 864.05 Q 1778.225 887 1762.925 905.9 L 1762.925 905.9 L 1762.925 905.9 Q 1747.625 924.8 1725.125 936.05 L 1725.125 936.05 L 1725.125 936.05 Q 1748.525 954.05 1756.625 976.55 L 1756.625 976.55 L 1756.625 976.55 Q 1795.325 947.3 1806.575 913.1 L 1806.575 913.1 L 1811.525 918.5 L 1811.525 918.5 Q 1800.275 954.05 1759.325 985.1 L 1759.325 985.1 L 1759.325 985.1 Q 1761.125 990.95 1761.125 999.95 L 1761.125 999.95 L 1761.125 999.95 Q 1761.125 1026.5 1745.6 1052.825 L 1745.6 1052.825 L 1745.6 1052.825 Q 1730.075 1079.15 1705.1 1095.575 L 1705.1 1095.575 L 1705.1 1095.575 Q 1680.125 1112 1653.575 1112 L 1653.575 1112 L 1653.575 1112 Z  M 1650.425 1098.95 L 1650.425 1098.95 Q 1662.575 1098.95 1681.475 1086.8 L 1681.475 1086.8 L 1681.475 1086.8 Q 1700.375 1074.65 1715.675 1052.6 L 1715.675 1052.6 L 1715.675 1052.6 Q 1730.975 1030.55 1733.675 1001.75 L 1733.675 1001.75 L 1733.675 1001.75 Q 1713.875 1014.35 1703.975 1019.75 L 1703.975 1019.75 L 1703.975 1019.75 Q 1679.675 1034.15 1666.85 1043.15 L 1666.85 1043.15 L 1666.85 1043.15 Q 1654.025 1052.15 1645.25 1062.5 L 1645.25 1062.5 L 1645.25 1062.5 Q 1636.475 1072.85 1636.475 1084.1 L 1636.475 1084.1 L 1636.475 1084.1 Q 1636.475 1091.75 1640.3 1095.35 L 1640.3 1095.35 L 1640.3 1095.35 Q 1644.125 1098.95 1650.425 1098.95 L 1650.425 1098.95 L 1650.425 1098.95 Z  M 1847.075 1005.8 L 1847.075 1005.8 Q 1820.525 1005.8 1806.35 991.175 L 1806.35 991.175 L 1806.35 991.175 Q 1792.175 976.55 1792.175 953.6 L 1792.175 953.6 L 1792.175 953.6 Q 1792.175 927.05 1809.725 896.45 L 1809.725 896.45 L 1809.725 896.45 Q 1827.275 865.85 1854.05 844.925 L 1854.05 844.925 L 1854.05 844.925 Q 1880.825 824 1906.475 824 L 1906.475 824 L 1906.475 824 Q 1934.375 824 1934.375 851.45 L 1934.375 851.45 L 1934.375 851.45 Q 1934.375 873.5 1917.725 892.625 L 1917.725 892.625 L 1917.725 892.625 Q 1901.075 911.75 1874.975 923.9 L 1874.975 923.9 L 1874.975 923.9 Q 1848.875 936.05 1822.775 938.75 L 1822.775 938.75 L 1822.775 938.75 Q 1820.975 946.4 1820.975 954.95 L 1820.975 954.95 L 1820.975 954.95 Q 1820.975 971.15 1829.075 981.95 L 1829.075 981.95 L 1829.075 981.95 Q 1837.175 992.75 1856.525 992.75 L 1856.525 992.75 L 1856.525 992.75 Q 1883.975 992.75 1911.875 969.8 L 1911.875 969.8 L 1911.875 969.8 Q 1939.775 946.85 1957.325 913.1 L 1957.325 913.1 L 1962.725 917.15 L 1962.725 917.15 Q 1944.725 957.2 1912.775 981.5 L 1912.775 981.5 L 1912.775 981.5 Q 1880.825 1005.8 1847.075 1005.8 L 1847.075 1005.8 L 1847.075 1005.8 Z  M 1825.025 930.2 L 1825.025 930.2 Q 1843.925 923.45 1864.625 911.3 L 1864.625 911.3 L 1864.625 911.3 Q 1885.325 899.15 1899.95 882.725 L 1899.95 882.725 L 1899.95 882.725 Q 1914.575 866.3 1914.575 848.3 L 1914.575 848.3 L 1914.575 848.3 Q 1914.575 842.9 1912.55 840.425 L 1912.55 840.425 L 1912.55 840.425 Q 1910.525 837.95 1905.125 837.95 L 1905.125 837.95 L 1905.125 837.95 Q 1891.175 837.95 1874.75 851.9 L 1874.75 851.9 L 1874.75 851.9 Q 1858.325 865.85 1844.6 887.45 L 1844.6 887.45 L 1844.6 887.45 Q 1830.875 909.05 1825.025 930.2 L 1825.025 930.2 L 1825.025 930.2 Z " fill="rgb(236,38,143)"/></g></g></svg>