<?xml version="1.0" encoding="UTF-8" standalone="no"?><!-- Generator: Gravit.io --><svg xmlns="http://www.w3.org/2000/svg" xmlns:xlink="http://www.w3.org/1999/xlink" style="isolation:isolate" viewBox="0 0 120 120" width="120pt" height="120pt"><defs><clipPath id="_clipPath_HTxnLG3JLhYmL4pCODrBA5YdngOzR2pw"><rect width="120" height="120"/></clipPath></defs><g clip-path="url(#_clipPath_HTxnLG3JLhYmL4pCODrBA5YdngOzR2pw)"><clipPath id="_clipPath_aDEFNHnMVJLJ3mRw3uv9w1JCUw0DMQCc"><rect x="0" y="0" width="120" height="120" transform="matrix(1,0,0,1,0,0)" fill="rgb(255,255,255)"/></clipPath><g clip-path="url(#_clipPath_aDEFNHnMVJLJ3mRw3uv9w1JCUw0DMQCc)"><g><g><path d=" M 24.27 54.883 C 25.021 57.688 23.078 62.051 25.076 65.479 C 27.075 68.907 31.914 69.512 33.839 71.456 C 35.056 73.179 36.094 75.022 36.938 76.955 L 27.221 105.316 C 26.763 106.791 27.279 108.395 28.511 109.327 C 29.742 110.259 31.426 110.319 32.721 109.478 L 38.808 105.169 L 40.952 112.301 C 41.405 113.831 42.796 114.892 44.391 114.926 C 45.987 114.959 47.42 113.957 47.937 112.447 L 57.433 85.113 C 59.074 85.81 60.926 85.81 62.567 85.113 L 71.99 112.521 C 72.506 114.03 73.94 115.033 75.535 114.999 C 77.131 114.966 78.521 113.904 78.974 112.374 L 81.119 105.243 L 87.206 109.496 C 88.501 110.338 90.184 110.278 91.416 109.346 C 92.648 108.413 93.163 106.809 92.705 105.334 L 83.062 77.029 C 83.91 75.101 84.941 73.259 86.142 71.529 C 88.141 69.476 92.999 68.926 94.924 65.498 C 96.849 62.069 95.015 57.615 95.73 54.901 C 96.445 52.188 100.332 49.347 100.332 45.332 C 100.332 41.317 96.409 38.329 95.73 35.762 C 95.052 33.196 96.922 28.594 94.924 25.166 C 92.925 21.738 88.086 21.133 86.161 19.189 C 84.236 17.246 83.631 12.333 80.166 10.39 C 76.701 8.447 72.283 10.39 69.57 9.601 C 66.856 8.813 64.033 5 60 5 C 55.967 5 53.015 8.905 50.43 9.601 C 47.57 10.353 43.281 8.392 39.834 10.39 C 36.388 12.388 35.819 17.21 33.858 19.171 C 31.896 21.133 27.001 21.701 25.168 25.166 C 23.335 28.631 25.168 33.049 24.361 35.762 C 23.555 38.475 19.668 41.28 19.668 45.332 C 19.668 49.383 23.573 52.28 24.27 54.883 Z  M 44.546 111.329 L 42.401 104.161 C 42.038 103.043 41.163 102.167 40.045 101.804 C 38.928 101.441 37.704 101.636 36.754 102.328 L 30.668 106.581 C 40.494 77.964 39.651 80.164 39.834 80.164 C 43.207 82.125 47.717 80.164 50.43 80.952 C 51.753 81.52 52.987 82.273 54.097 83.189 L 44.546 111.329 Z  M 83.246 102.163 C 82.271 101.475 81.023 101.305 79.899 101.706 C 78.776 102.107 77.918 103.03 77.599 104.179 L 75.454 111.329 L 65.811 83.262 C 66.912 82.338 68.149 81.59 69.478 81.044 C 72.356 80.274 76.628 82.235 80.074 80.237 C 80.258 80.127 79.433 78 89.241 106.563 L 83.246 102.163 Z  M 25.388 41.115 C 28.01 37.449 28.376 36.239 27.955 31.491 C 27.533 26.742 27.79 26.412 32.061 24.451 C 36.333 22.489 37.176 21.628 39.119 17.375 C 41.062 13.121 41.667 12.865 46.177 13.286 C 50.687 13.708 52.099 13.286 55.802 10.72 C 59.505 8.153 60.33 7.988 64.198 10.72 C 68.066 13.451 69.166 13.69 73.823 13.286 C 78.479 12.883 78.919 13.121 80.881 17.375 C 82.842 21.628 83.722 22.489 87.939 24.451 C 92.155 26.412 92.467 26.907 92.045 31.491 C 91.624 36.074 92.045 37.43 94.612 41.115 C 97.179 44.8 97.344 45.643 94.612 49.512 C 91.88 53.38 91.624 54.388 92.045 59.136 C 92.467 63.884 92.21 64.214 87.939 66.194 C 83.667 68.174 82.842 68.999 80.881 73.252 C 78.919 77.505 78.424 77.762 73.823 77.359 C 69.221 76.955 67.901 77.359 64.198 79.907 C 60.495 82.455 59.67 82.639 55.802 79.907 C 53.891 78.179 51.412 77.213 48.835 77.194 C 46.196 77.194 43.207 77.945 41.667 77.065 C 39.559 75.837 38.991 71.401 36.443 68.871 C 33.894 66.341 29.44 65.718 28.248 63.664 C 27.056 61.611 28.743 57.431 27.808 53.966 C 26.873 50.502 23.335 47.77 23.335 45.332 C 23.612 43.762 24.324 42.302 25.388 41.115 L 25.388 41.115 Z " fill="rgb(106,0,158)"/></g><g><path d=" M 60 72.831 C 75.187 72.831 87.499 60.519 87.499 45.332 C 87.499 30.145 75.187 17.833 60 17.833 C 44.813 17.833 32.501 30.145 32.501 45.332 C 32.501 60.519 44.813 72.831 60 72.831 Z  M 60 21.499 C 73.162 21.499 83.832 32.169 83.832 45.332 C 83.832 58.494 73.162 69.164 60 69.164 C 46.838 69.164 36.168 58.494 36.168 45.332 C 36.168 39.011 38.679 32.949 43.148 28.48 C 47.617 24.01 53.679 21.499 60 21.499 Z " fill="rgb(106,0,158)"/></g><g><path d=" M 65.871 63.332 L 57.319 63.332 L 57.319 40.123 C 55.264 41.683 52.939 42.896 50.381 43.741 L 48.996 44.198 L 48.996 36.128 C 49.463 35.925 51.407 35.639 54.882 32.931 C 58.177 30.364 58.632 27.747 58.846 27.332 L 65.871 27.332 L 65.871 63.332 Z  M 59.428 61.222 L 63.762 61.222 L 63.762 29.441 L 60.305 29.441 C 59.462 31.385 58.077 33.116 56.179 34.595 C 54.395 35.984 52.692 37.003 51.105 37.632 L 51.105 41.231 C 53.571 40.238 55.769 38.847 57.653 37.085 L 59.428 35.426 L 59.428 61.222 Z " fill="rgb(106,0,158)"/></g></g></g></g></svg>