<?xml version="1.0" encoding="UTF-8" standalone="no"?><!-- Generator: Gravit.io --><svg xmlns="http://www.w3.org/2000/svg" xmlns:xlink="http://www.w3.org/1999/xlink" style="isolation:isolate" viewBox="0 0 1090 710" width="1090pt" height="710pt"><defs><clipPath id="_clipPath_IMYISs6GLf1DjvkstBRnS3hpArfhS8ZW"><rect width="1090" height="710"/></clipPath></defs><g clip-path="url(#_clipPath_IMYISs6GLf1DjvkstBRnS3hpArfhS8ZW)"><g><g><path d=" M 1.607 1 Q 4.468 1 6.938 1 C 6.617 5.251 8.636 13.513 10.27 27.061 C 16.642 55.876 26.866 89.963 40.922 129.302 C 44.828 140.886 47.722 153.367 49.584 166.723 C 50.299 187.104 47.204 203.24 45.586 216.172 C 43.128 229.621 44.248 240.684 43.587 248.248 C 43.759 268.22 47.784 293.64 55.582 324.427 C 53.829 327.259 49.171 320.361 44.254 307.721 C 42.024 293.825 39.572 277.114 38.256 257.584 C 37.444 245.523 37.585 232.388 36.924 218.177 C 36.643 196.151 35.317 177.002 32.926 160.709 C 28.013 134.024 22.466 111.533 16.267 93.217 C 6.027 56.808 1.618 26.548 1.607 1 Z " fill="rgb(0,0,0)" vector-effect="non-scaling-stroke" stroke-width="1" stroke="rgb(0,0,0)" stroke-linejoin="miter" stroke-linecap="square" stroke-miterlimit="3"/><path d=" M 79.57 93.885 C 84.358 100.381 86.808 103.729 88.233 107.918 C 90.421 113.535 91.93 118.655 92.556 123.133 C 94.472 131.178 96.084 137.288 96.229 140.662 C 97.281 151.392 99.084 160.328 101.56 167.391 C 106.238 178.946 112.464 186.972 120.218 191.448 C 123.644 193.144 127.655 194.271 132.212 194.789 C 124.982 189.213 119.88 184.765 116.886 181.424 C 110.828 176.469 106.634 168.254 104.225 158.036 C 102.68 154.379 101.716 149.187 101.138 142.488 C 100.414 137.723 99.478 132.444 98.228 126.629 C 95.809 118.498 92.262 110.263 87.566 101.904 L 79.57 93.885 Z " fill="rgb(55,52,53)" vector-effect="non-scaling-stroke" stroke-width="1" stroke="rgb(0,0,0)" stroke-linejoin="miter" stroke-linecap="square" stroke-miterlimit="3"/><path d=" M 171.527 85.866 C 180.795 84.849 188.576 84.856 194.849 85.866 C 202.198 87.44 207.757 90.12 211.508 93.885 C 216.269 98.46 219.607 104.481 221.503 111.927 C 222.797 117.992 223.248 123.567 222.836 128.633 C 224.588 124.168 225.49 118.612 225.501 111.927 C 225.407 102.567 222.526 95.668 216.839 89.876 C 210.62 85.309 203.296 82.643 194.849 81.857 C 187.85 81.241 180.089 82.591 171.527 85.866 Z " fill="rgb(0,0,0)" vector-effect="non-scaling-stroke" stroke-width="1" stroke="rgb(0,0,0)" stroke-linejoin="miter" stroke-linecap="square" stroke-miterlimit="3"/><path d=" M 210.175 142.666 C 207.16 143.704 203.57 147.029 199.514 150.017 C 192.115 156.651 185.633 163.808 187.519 166.723 C 188.012 168.61 189.143 170.189 190.851 171.401 C 192.327 172.25 194.333 172.925 196.848 173.405 C 195.057 170.524 193.769 167.825 194.183 165.386 C 194.413 161.693 197.314 157.475 201.513 152.69 L 210.175 142.666 Z " fill="rgb(0,0,0)" vector-effect="non-scaling-stroke" stroke-width="1" stroke="rgb(0,0,0)" stroke-linejoin="miter" stroke-linecap="square" stroke-miterlimit="3"/><path d=" M 65.577 178.751 C 66.043 192.508 64.94 202.761 63.578 210.827 C 61.667 224.563 58.355 237.279 53.582 248.916 L 44.92 272.973 C 44.694 289.341 47.151 306.06 53.582 323.09 C 58.59 335.369 68.37 343.395 82.902 347.147 C 91.231 348.821 99.012 348.827 106.224 347.147 C 116.157 344.411 123.945 339.301 129.547 331.778 C 116.174 340.926 102.866 343.842 89.566 340.465 C 75.252 336.607 64.597 326.59 57.581 311.73 C 54.145 298.451 53.518 286.017 55.582 272.973 C 58.496 258.96 61.612 246.27 64.91 234.883 C 67.234 223.99 68.574 213.973 68.909 204.812 C 68.959 193.638 68.757 185.416 65.577 178.751 Z " fill="rgb(0,0,0)" vector-effect="non-scaling-stroke" stroke-width="1" stroke="rgb(0,0,0)" stroke-linejoin="miter" stroke-linecap="square" stroke-miterlimit="3"/><path d=" M 54.249 325.763 C 53.286 326.735 53.292 327.856 52.916 329.105 L 62.911 352.493 C 69.59 366.644 78.482 381.575 89.566 397.265 L 105.664 416.844 C 112.603 423.405 117.69 429.588 120.884 435.354 C 123.558 441.237 125.799 446.381 126.215 450.724 C 127.112 470.279 126.897 487.437 125.549 502.178 C 124.046 520.079 126.953 540.369 132.878 562.988 C 139.043 584.684 150.6 607.188 167.529 630.48 C 180.623 647.444 193.291 661.707 205.511 673.247 C 195.211 658.982 183.445 642.283 171.527 623.129 C 160.265 603.43 151.394 582.728 143.54 560.983 C 138.542 546.184 136.328 531.267 136.877 516.211 C 140.93 488.913 145.515 470.282 149.233 460.252 C 149.774 455.445 149.875 451.823 149.537 449.387 C 146.8 441.773 141.562 434.69 133.273 428.064 C 130.514 425.152 127.506 422.236 124.216 419.317 C 106.947 405.796 90.524 386.43 74.906 361.18 C 69.168 351.358 63.622 340.673 58.247 329.105 L 54.249 325.763 Z " fill="rgb(0,0,0)" vector-effect="non-scaling-stroke" stroke-width="1" stroke="rgb(0,0,0)" stroke-linejoin="miter" stroke-linecap="square" stroke-miterlimit="3"/><path d=" M 216.172 534.254 C 231.382 540.944 243.39 549.199 253.488 558.978 C 262.279 568.684 270.948 580.273 279.476 593.727 C 289.635 609.928 296.756 626.647 302.132 643.844 L 310.795 671.242 C 308.459 652.764 305.356 637.624 301.466 625.802 C 291.699 601.796 284.82 584.428 278.143 573.68 C 271.477 565.014 264.154 557.002 256.154 549.623 C 241.575 540.463 229.143 534.901 216.172 534.254 Z " fill="rgb(0,0,0)" vector-effect="non-scaling-stroke" stroke-width="1" stroke="rgb(0,0,0)" stroke-linejoin="miter" stroke-linecap="square" stroke-miterlimit="3"/><path d=" M 298.134 509.529 C 287.34 530.993 276.914 547.044 266.815 558.978 L 273.479 568.334 C 276.582 564.133 280.347 559.485 284.14 552.296 C 284.711 551.186 285.694 549.421 286.139 548.287 C 291.647 535.749 295.652 523.282 298.134 509.529 Z " fill="rgb(0,0,0)" vector-effect="non-scaling-stroke" stroke-width="1" stroke="rgb(0,0,0)" stroke-linejoin="miter" stroke-linecap="square" stroke-miterlimit="3"/></g><g><path d=" M 455.393 182.092 L 439.401 192.784 C 432.581 199.733 424.592 206.422 416.745 211.495 C 395.63 223.043 374.111 228.416 350.776 227.533 C 322.399 226.787 297.084 227.24 274.811 228.869 C 265.114 230.53 257.125 233.655 250.823 236.888 C 243.788 240.873 238.685 248.007 235.497 258.271 C 248.454 254.736 260.018 252.076 270.147 250.253 C 277.146 248.884 289.403 248.175 306.892 248.098 C 317.859 248.46 329.162 248.071 340.78 246.911 C 368.225 244.72 391.332 239.381 410.081 230.874 C 426.685 223.662 439.796 212.754 449.396 198.13 L 455.393 182.092 Z " fill="rgb(236,38,143)"/><path d=" M 297.467 191.448 L 278.143 204.812 L 252.156 224.191 C 245.938 230.123 241.28 234.807 238.162 240.897 C 235.827 245.226 233.841 251.477 233.498 258.271 C 235.05 265.803 238.167 273.16 241.494 280.323 C 246.704 293.007 247.377 306.156 243.493 319.749 C 237.403 328.797 229.642 337.275 220.171 345.142 C 209.775 350.354 198.232 351.475 185.52 348.484 C 174.727 343.727 164.517 339.947 154.868 337.123 L 120.218 326.432 L 168.195 331.109 C 174.376 332.844 184.189 333.998 194.849 334.451 C 204.964 334.214 213.411 331.548 220.171 326.432 C 225.91 321.68 228.138 314.336 228.167 304.38 C 227.147 293.869 223.829 282.523 218.172 270.3 C 214.341 258.282 214.792 248.043 219.504 239.561 C 223.856 231.247 230.97 223.903 240.828 217.509 C 260.198 207.677 279.085 198.997 297.467 191.448 Z " fill="rgb(236,38,143)"/><path d=" M 243.493 319.749 C 242.71 320.173 240.098 330.028 236.829 346.479 C 236.382 361.845 245.058 372.105 256.154 374.545 C 283.908 377.653 303.037 382.135 320.123 389.246 C 330.563 394.146 340.343 401.281 349.443 410.63 C 360.216 424.074 368.663 438.336 374.764 453.397 C 379.469 468.373 382.141 485.085 382.761 503.515 C 382.994 526.263 381.002 551.218 376.763 578.357 C 371.098 609.511 363.997 638.92 355.44 666.565 L 339.448 710 C 341.363 683.516 342.924 666.817 344.112 659.882 C 347.053 637.649 349.3 613.619 352.108 587.713 C 354.33 556.306 354.337 525.573 352.108 495.496 C 349.536 474.229 343.545 454.857 334.117 437.359 C 324.123 420.763 311.025 409.187 294.802 402.611 C 283.546 399.049 268.004 396.828 248.157 395.928 C 231.892 396.525 222.125 387.399 218.838 368.531 C 218.038 360.516 218.495 352.511 220.171 344.474 Q 245.282 318.78 243.493 319.749 Z " fill="rgb(236,38,143)"/></g></g><defs><filter id="uR2y05DRacqpbTpwdKmNvjT0RhvVTfF3" x="-200%" y="-200%" width="400%" height="400%" filterUnits="objectBoundingBox" color-interpolation-filters="sRGB"><feGaussianBlur xmlns="http://www.w3.org/2000/svg" in="SourceGraphic" stdDeviation="2.146804531419514"/><feOffset xmlns="http://www.w3.org/2000/svg" dx="-5" dy="10" result="pf_100_offsetBlur"/><feFlood xmlns="http://www.w3.org/2000/svg" flood-color="#6A009E" flood-opacity="1"/><feComposite xmlns="http://www.w3.org/2000/svg" in2="pf_100_offsetBlur" operator="in" result="pf_100_dropShadow"/><feBlend xmlns="http://www.w3.org/2000/svg" in="SourceGraphic" in2="pf_100_dropShadow" mode="normal" result="_out_yR0ZKXkK1M0aD2nRhTuoGZ7eHcScPVF8"/><feOffset xmlns="http://www.w3.org/2000/svg" in="_out_yR0ZKXkK1M0aD2nRhTuoGZ7eHcScPVF8" dx="-10" dy="0"/><feGaussianBlur xmlns="http://www.w3.org/2000/svg" stdDeviation="2.146804531419514" result="pf_101_offsetBlur"/><feComposite xmlns="http://www.w3.org/2000/svg" in="_out_yR0ZKXkK1M0aD2nRhTuoGZ7eHcScPVF8" in2="pf_101_offsetBlur" result="pf_101_inverse" operator="out"/><feFlood xmlns="http://www.w3.org/2000/svg" flood-color="#F9C2DF" flood-opacity="1" result="pf_101_color"/><feComposite xmlns="http://www.w3.org/2000/svg" in="pf_101_color" in2="pf_101_inverse" operator="in" result="pf_101_shadow"/><feComposite xmlns="http://www.w3.org/2000/svg" in="pf_101_shadow" in2="_out_yR0ZKXkK1M0aD2nRhTuoGZ7eHcScPVF8" operator="over" result="_out_MyNJ2Lr16wQINhSawVtEMWg4c1bY5TDU"/><feOffset xmlns="http://www.w3.org/2000/svg" in="_out_MyNJ2Lr16wQINhSawVtEMWg4c1bY5TDU" dx="-5" dy="0"/><feGaussianBlur xmlns="http://www.w3.org/2000/svg" stdDeviation="2.146804531419514" result="pf_102_offsetBlur"/><feComposite xmlns="http://www.w3.org/2000/svg" in="_out_MyNJ2Lr16wQINhSawVtEMWg4c1bY5TDU" in2="pf_102_offsetBlur" result="pf_102_inverse" operator="out"/><feFlood xmlns="http://www.w3.org/2000/svg" flood-color="#EC268F" flood-opacity="1" result="pf_102_color"/><feComposite xmlns="http://www.w3.org/2000/svg" in="pf_102_color" in2="pf_102_inverse" operator="in" result="pf_102_shadow"/><feComposite xmlns="http://www.w3.org/2000/svg" in="pf_102_shadow" in2="_out_MyNJ2Lr16wQINhSawVtEMWg4c1bY5TDU" operator="over" result="_out_kK7RYhT1HXKfSJywtopNvVHMAuA9KkV6"/><feMerge><feMergeNode in="_out_kK7RYhT1HXKfSJywtopNvVHMAuA9KkV6"/></feMerge></filter></defs><g filter="url(#uR2y05DRacqpbTpwdKmNvjT0RhvVTfF3)"><path d=" M 567.043 554.85 L 567.043 554.85 Q 536.243 554.85 509.843 543.85 L 509.843 543.85 L 509.843 543.85 Q 483.443 532.85 467.768 510.575 L 467.768 510.575 L 467.768 510.575 Q 452.093 488.3 452.093 456.4 L 452.093 456.4 L 452.093 456.4 Q 452.093 417.35 473.543 400.025 L 473.543 400.025 L 473.543 400.025 Q 494.993 382.7 522.493 382.7 L 522.493 382.7 L 522.493 382.7 Q 507.643 398.65 499.943 417.9 L 499.943 417.9 L 499.943 417.9 Q 492.243 437.15 492.243 456.4 L 492.243 456.4 L 492.243 456.4 Q 492.243 489.4 513.968 511.4 L 513.968 511.4 L 513.968 511.4 Q 535.693 533.4 576.393 533.4 L 576.393 533.4 L 576.393 533.4 Q 602.243 533.4 625.618 524.05 L 625.618 524.05 L 625.618 524.05 Q 648.993 514.7 663.843 496.55 L 663.843 496.55 L 663.843 496.55 Q 678.693 478.4 678.693 453.1 L 678.693 453.1 L 678.693 453.1 Q 678.693 431.1 667.693 414.325 L 667.693 414.325 L 667.693 414.325 Q 656.693 397.55 640.193 385.725 L 640.193 385.725 L 640.193 385.725 Q 623.693 373.9 596.193 357.4 L 596.193 357.4 L 596.193 357.4 Q 568.143 340.9 551.368 328.525 L 551.368 328.525 L 551.368 328.525 Q 534.593 316.15 523.043 298.55 L 523.043 298.55 L 523.043 298.55 Q 511.493 280.95 511.493 257.85 L 511.493 257.85 L 511.493 257.85 Q 511.493 225.95 531.293 191.575 L 531.293 191.575 L 531.293 191.575 Q 551.093 157.2 587.118 134.1 L 587.118 134.1 L 587.118 134.1 Q 623.143 111 668.243 111 L 668.243 111 L 668.243 111 Q 698.493 111 712.243 125.85 L 712.243 125.85 L 712.243 125.85 Q 725.993 140.7 725.993 166 L 725.993 166 L 725.993 166 Q 725.993 193.5 712.793 227.6 L 712.793 227.6 L 712.793 227.6 Q 699.593 261.7 683.643 287 L 683.643 287 L 683.643 287 Q 665.493 283.15 665.493 263.35 L 665.493 263.35 L 665.493 263.35 Q 665.493 252.9 669.618 239.7 L 669.618 239.7 L 669.618 239.7 Q 673.743 226.5 681.443 206.7 L 681.443 206.7 L 681.443 206.7 Q 689.693 185.25 693.818 171.775 L 693.818 171.775 L 693.818 171.775 Q 697.943 158.3 697.943 147.85 L 697.943 147.85 L 697.943 147.85 Q 697.943 136.3 691.068 130.25 L 691.068 130.25 L 691.068 130.25 Q 684.193 124.2 667.143 124.2 L 667.143 124.2 L 667.143 124.2 Q 634.693 124.2 606.918 144.275 L 606.918 144.275 L 606.918 144.275 Q 579.143 164.35 562.643 192.95 L 562.643 192.95 L 562.643 192.95 Q 546.143 221.55 546.143 245.2 L 546.143 245.2 L 546.143 245.2 Q 546.143 262.8 555.768 276.55 L 555.768 276.55 L 555.768 276.55 Q 565.393 290.3 579.693 300.475 L 579.693 300.475 L 579.693 300.475 Q 593.993 310.65 618.743 324.4 L 618.743 324.4 L 618.743 324.4 Q 648.443 341.45 666.593 354.925 L 666.593 354.925 L 666.593 354.925 Q 684.743 368.4 697.668 389.025 L 697.668 389.025 L 697.668 389.025 Q 710.593 409.65 710.593 437.7 L 710.593 437.7 L 710.593 437.7 Q 710.593 474 689.418 500.4 L 689.418 500.4 L 689.418 500.4 Q 668.243 526.8 635.243 540.825 L 635.243 540.825 L 635.243 540.825 Q 602.243 554.85 567.043 554.85 L 567.043 554.85 L 567.043 554.85 Z  M 814.543 554.85 L 814.543 554.85 Q 783.743 554.85 768.618 544.4 L 768.618 544.4 L 768.618 544.4 Q 753.493 533.95 753.493 510.85 L 753.493 510.85 L 753.493 510.85 Q 753.493 509.2 756.243 509.2 L 756.243 509.2 L 756.243 509.2 Q 758.443 509.2 769.443 511.95 L 769.443 511.95 L 769.443 511.95 Q 780.443 514.7 807.943 514.7 L 807.943 514.7 L 807.943 514.7 Q 868.993 514.7 919.318 496.275 L 919.318 496.275 L 919.318 496.275 Q 969.643 477.85 998.243 447.6 L 998.243 447.6 L 998.243 447.6 Q 1026.843 417.35 1026.843 384.35 L 1026.843 384.35 L 1026.843 384.35 Q 1026.843 344.2 987.243 329.625 L 987.243 329.625 L 987.243 329.625 Q 947.643 315.05 888.243 315.05 L 888.243 315.05 L 846.993 315.6 L 846.993 315.6 Q 838.743 343.65 823.343 399.75 L 823.343 399.75 L 823.343 399.75 Q 811.793 442.65 797.493 492.7 L 797.493 492.7 L 797.493 492.7 Q 783.743 492.7 774.393 485 L 774.393 485 L 774.393 485 Q 765.043 477.3 765.043 466.3 L 765.043 466.3 L 765.043 466.3 Q 765.043 459.15 768.343 448.7 L 768.343 448.7 L 768.343 448.7 Q 771.643 438.25 772.743 434.95 L 772.743 434.95 L 772.743 434.95 Q 789.793 377.75 824.168 282.325 L 824.168 282.325 L 824.168 282.325 Q 858.543 186.9 889.343 126.4 L 889.343 126.4 L 889.343 126.4 Q 856.893 131.9 825.543 150.6 L 825.543 150.6 L 825.543 150.6 Q 815.643 156.1 813.443 156.1 L 813.443 156.1 L 813.443 156.1 Q 809.043 156.1 802.443 150.6 L 802.443 150.6 L 802.443 150.6 Q 795.843 145.1 795.843 141.25 L 795.843 141.25 L 795.843 141.25 Q 832.143 126.4 859.918 118.7 L 859.918 118.7 L 859.918 118.7 Q 887.693 111 926.193 111 L 926.193 111 L 926.193 111 Q 976.793 111 1015.018 129.425 L 1015.018 129.425 L 1015.018 129.425 Q 1053.243 147.85 1053.243 198.45 L 1053.243 198.45 L 1053.243 198.45 Q 1053.243 247.4 1016.668 272.15 L 1016.668 272.15 L 1016.668 272.15 Q 980.093 296.9 927.293 305.7 L 927.293 305.7 L 927.293 305.7 Q 1052.693 313.4 1052.693 394.25 L 1052.693 394.25 L 1052.693 394.25 Q 1052.693 443.75 1012.543 480.325 L 1012.543 480.325 L 1012.543 480.325 Q 972.393 516.9 916.018 535.875 L 916.018 535.875 L 916.018 535.875 Q 859.643 554.85 814.543 554.85 L 814.543 554.85 L 814.543 554.85 Z  M 850.293 302.95 L 850.293 302.95 Q 921.243 300.75 970.743 274.9 L 970.743 274.9 L 970.743 274.9 Q 1020.243 249.05 1020.243 194.05 L 1020.243 194.05 L 1020.243 194.05 Q 1020.243 122.55 927.293 122.55 L 927.293 122.55 L 927.293 122.55 Q 920.143 122.55 916.843 123.1 L 916.843 123.1 L 916.843 123.1 Q 884.393 186.35 850.293 302.95 L 850.293 302.95 L 850.293 302.95 Z " fill="rgb(236,38,143)"/></g></g></svg>