<?xml version="1.0" encoding="UTF-8" standalone="no"?><!-- Generator: Gravit.io --><svg xmlns="http://www.w3.org/2000/svg" xmlns:xlink="http://www.w3.org/1999/xlink" style="isolation:isolate" viewBox="0 0 2061 1200" width="2061pt" height="1200pt"><defs><clipPath id="_clipPath_UxEmfYUmFQElSpaCIzBLDGJ2DbCeqYRC"><rect width="2061" height="1200"/></clipPath></defs><g clip-path="url(#_clipPath_UxEmfYUmFQElSpaCIzBLDGJ2DbCeqYRC)"><g><g><path d=" M 1 1 Q 5.293 1 9 1 C 8.519 7.362 11.549 19.725 14 40 C 23.563 83.121 38.906 134.131 60 193 C 65.862 210.336 70.205 229.013 73 249 C 74.072 279.5 69.427 303.646 67 323 C 63.311 343.125 64.991 359.68 64 371 C 64.258 400.888 70.298 438.928 82 485 C 79.37 489.238 72.38 478.915 65 460 C 61.654 439.204 57.974 414.197 56 384.971 C 54.781 366.923 54.992 347.267 54 326 C 53.579 293.039 51.589 264.382 48 240 C 40.627 200.067 32.304 166.41 23 139 C 7.633 84.515 1.017 39.232 1 1 Z " fill="rgb(0,0,0)" vector-effect="non-scaling-stroke" stroke-width="1" stroke="rgb(0,0,0)" stroke-linejoin="miter" stroke-linecap="square" stroke-miterlimit="3"/><path d=" M 118 140 C 125.185 149.721 128.862 154.731 131 161 C 134.284 169.405 136.548 177.067 137.487 183.769 C 140.363 195.808 142.783 204.952 143 210 C 144.578 226.057 147.285 239.431 151 250 C 158.021 267.292 167.364 279.302 179 286 C 184.141 288.539 190.161 290.225 197 291 C 186.15 282.656 178.493 275.999 174 271 C 164.908 263.585 158.615 251.292 155 236 C 152.682 230.527 151.234 222.758 150.366 212.733 C 149.281 205.602 147.876 197.703 146 189 C 142.37 176.833 137.047 164.509 130 152 L 118 140 Z " fill="rgb(55,52,53)" vector-effect="non-scaling-stroke" stroke-width="1" stroke="rgb(0,0,0)" stroke-linejoin="miter" stroke-linecap="square" stroke-miterlimit="3"/><path d=" M 256 128 C 269.909 126.478 281.586 126.488 291 128 C 302.028 130.356 310.371 134.366 316 140 C 323.144 146.846 328.154 155.856 331 167 C 332.942 176.075 333.618 184.418 333 192 C 335.63 185.317 336.983 177.004 337 167 C 336.858 152.992 332.535 142.669 324 134 C 314.667 127.167 303.677 123.177 291 122 C 280.496 121.078 268.849 123.098 256 128 Z " fill="rgb(0,0,0)" vector-effect="non-scaling-stroke" stroke-width="1" stroke="rgb(0,0,0)" stroke-linejoin="miter" stroke-linecap="square" stroke-miterlimit="3"/><path d=" M 314 213 C 309.475 214.553 304.087 219.529 298 224 C 286.896 233.928 277.17 244.638 280 249 C 280.74 251.823 282.437 254.187 285 256 C 287.215 257.271 290.225 258.281 294 259 C 291.313 254.688 289.38 250.649 290 247 C 290.345 241.473 294.698 235.16 301 228 L 314 213 Z " fill="rgb(0,0,0)" vector-effect="non-scaling-stroke" stroke-width="1" stroke="rgb(0,0,0)" stroke-linejoin="miter" stroke-linecap="square" stroke-miterlimit="3"/><path d=" M 97 267 C 97.7 287.587 96.044 302.93 94 315 C 91.132 335.556 86.162 354.586 79 372 L 66 408 C 65.662 432.495 69.348 457.515 79 483 C 86.515 501.375 101.192 513.385 123 519 C 135.5 521.505 147.176 521.515 158 519 C 172.906 514.905 184.593 507.258 193 496 C 172.931 509.691 152.961 514.054 133 509 C 111.52 503.227 95.53 488.237 85 466 C 79.844 446.127 78.904 427.521 82 408 C 86.374 387.031 91.05 368.041 96 351 C 99.487 334.698 101.497 319.708 102 306 C 102.076 289.277 101.772 276.974 97 267 Z " fill="rgb(0,0,0)" vector-effect="non-scaling-stroke" stroke-width="1" stroke="rgb(0,0,0)" stroke-linejoin="miter" stroke-linecap="square" stroke-miterlimit="3"/><path d=" M 80 487 C 78.554 488.455 78.564 490.131 78 492 L 93 527 C 103.023 548.177 116.366 570.521 133 594 L 157.159 623.299 C 167.572 633.117 175.206 642.371 180 651 C 184.013 659.804 187.376 667.5 188 674 C 189.347 703.263 189.023 728.94 187 751 C 184.745 777.788 189.108 808.152 198 842 C 207.252 874.467 224.595 908.144 250 943 C 269.651 968.387 288.661 989.73 307 1007 C 291.543 985.653 273.886 960.663 256 932 C 239.1 902.52 225.786 871.54 214 839 C 206.5 816.854 203.177 794.531 204 772 C 210.083 731.149 216.964 703.269 222.544 688.259 C 223.355 681.065 223.508 675.646 223 672 C 218.892 660.605 211.031 650.006 198.592 640.09 C 194.451 635.732 189.938 631.369 185 627 C 159.085 606.767 134.438 577.787 111 540 C 102.389 525.301 94.066 509.311 86 492 L 80 487 Z " fill="rgb(0,0,0)" vector-effect="non-scaling-stroke" stroke-width="1" stroke="rgb(0,0,0)" stroke-linejoin="miter" stroke-linecap="square" stroke-miterlimit="3"/><path d=" M 323 799 C 345.825 809.012 363.845 821.365 379 836 C 392.193 850.524 405.203 867.867 418 888 C 433.245 912.245 443.932 937.265 452 963 L 465 1004 C 461.495 976.348 456.838 953.691 451 936 C 436.343 900.075 426.02 874.085 416 858 C 405.996 845.032 395.006 833.042 383 822 C 361.122 808.292 342.465 799.969 323 799 Z " fill="rgb(0,0,0)" vector-effect="non-scaling-stroke" stroke-width="1" stroke="rgb(0,0,0)" stroke-linejoin="miter" stroke-linecap="square" stroke-miterlimit="3"/><path d=" M 446 762 C 429.802 794.12 414.155 818.14 399 836 L 409 850 C 413.657 843.714 419.307 836.758 425 826 C 425.857 824.338 427.331 821.698 428 820 C 436.265 801.238 442.275 782.582 446 762 Z " fill="rgb(0,0,0)" vector-effect="non-scaling-stroke" stroke-width="1" stroke="rgb(0,0,0)" stroke-linejoin="miter" stroke-linecap="square" stroke-miterlimit="3"/></g><g><path d=" M 682 272 L 658 288 C 647.766 298.398 635.776 308.408 624 316 C 592.313 333.282 560.019 341.322 525 340 C 482.414 338.885 444.424 339.562 411 342 C 396.447 344.486 384.457 349.162 375 354 C 364.442 359.963 356.785 370.64 352 386 C 371.446 380.709 388.799 376.729 404 374 C 414.504 371.952 432.898 370.891 459.144 370.776 C 475.602 371.317 492.564 370.736 510 369 C 551.186 365.721 585.863 357.731 614 345 C 638.917 334.208 658.594 317.884 673 296 L 682 272 Z " fill="rgb(236,38,143)"/><path d=" M 445 286 L 416 306 L 377 335 C 367.669 343.877 360.679 350.887 356 360 C 352.495 366.478 349.515 375.832 349 386 C 351.33 397.271 356.007 408.281 361 419 C 368.818 437.982 369.828 457.658 364 478 C 354.86 491.54 343.214 504.227 329 516 C 313.399 523.8 296.076 525.476 277 521 C 260.803 513.882 245.48 508.225 231 504 L 179 488 L 251 495 C 260.276 497.597 275.003 499.323 291 500 C 306.18 499.646 318.856 495.656 329 488 C 337.613 480.889 340.956 469.899 341 455 C 339.47 439.271 334.49 422.291 326 404 C 320.251 386.016 320.928 370.693 328 358 C 334.53 345.559 345.207 334.569 360 325 C 389.07 310.287 417.413 297.297 445 286 Z " fill="rgb(236,38,143)"/><path d=" M 364 478 C 362.825 478.635 358.905 493.381 354 518 C 353.328 540.995 366.348 556.348 383 560 C 424.652 564.652 453.358 571.358 479 582 C 494.667 589.333 509.343 600.01 523 614 C 539.167 634.119 551.844 655.462 561 678 C 568.061 700.411 572.071 725.421 573 753 C 573.351 787.043 570.361 824.386 564 865 C 555.498 911.621 544.841 955.631 532 997 L 508 1062 C 510.874 1022.367 513.218 997.377 515 987 C 519.413 953.728 522.786 917.768 527 879 C 530.334 832 530.344 786.01 527 741 C 523.139 709.176 514.149 680.186 500 654 C 485.003 629.164 465.346 611.841 441 602 C 424.108 596.67 400.784 593.346 371 592 C 346.59 592.893 331.934 579.236 327 551 C 325.799 539.007 326.486 527.027 329 515 Q 366.685 476.55 364 478 Z " fill="rgb(236,38,143)"/></g></g><defs><filter id="IWjlJOQ09UipE5w9AWiZZZC1fDEe5Yaw" x="-200%" y="-200%" width="400%" height="400%" filterUnits="objectBoundingBox" color-interpolation-filters="sRGB"><feGaussianBlur xmlns="http://www.w3.org/2000/svg" in="SourceGraphic" stdDeviation="2.146804531419514"/><feOffset xmlns="http://www.w3.org/2000/svg" dx="-5" dy="10" result="pf_100_offsetBlur"/><feFlood xmlns="http://www.w3.org/2000/svg" flood-color="#6A009E" flood-opacity="1"/><feComposite xmlns="http://www.w3.org/2000/svg" in2="pf_100_offsetBlur" operator="in" result="pf_100_dropShadow"/><feBlend xmlns="http://www.w3.org/2000/svg" in="SourceGraphic" in2="pf_100_dropShadow" mode="normal" result="_out_QanfTfaGyNEIUGFGEaagLBWNmk1akXko"/><feOffset xmlns="http://www.w3.org/2000/svg" in="_out_QanfTfaGyNEIUGFGEaagLBWNmk1akXko" dx="-10" dy="0"/><feGaussianBlur xmlns="http://www.w3.org/2000/svg" stdDeviation="2.146804531419514" result="pf_101_offsetBlur"/><feComposite xmlns="http://www.w3.org/2000/svg" in="_out_QanfTfaGyNEIUGFGEaagLBWNmk1akXko" in2="pf_101_offsetBlur" result="pf_101_inverse" operator="out"/><feFlood xmlns="http://www.w3.org/2000/svg" flood-color="#F9C2DF" flood-opacity="1" result="pf_101_color"/><feComposite xmlns="http://www.w3.org/2000/svg" in="pf_101_color" in2="pf_101_inverse" operator="in" result="pf_101_shadow"/><feComposite xmlns="http://www.w3.org/2000/svg" in="pf_101_shadow" in2="_out_QanfTfaGyNEIUGFGEaagLBWNmk1akXko" operator="over" result="_out_wuX3pCyvWyayGyoWvVQyEj4WNkh63QHW"/><feOffset xmlns="http://www.w3.org/2000/svg" in="_out_wuX3pCyvWyayGyoWvVQyEj4WNkh63QHW" dx="-5" dy="0"/><feGaussianBlur xmlns="http://www.w3.org/2000/svg" stdDeviation="2.146804531419514" result="pf_102_offsetBlur"/><feComposite xmlns="http://www.w3.org/2000/svg" in="_out_wuX3pCyvWyayGyoWvVQyEj4WNkh63QHW" in2="pf_102_offsetBlur" result="pf_102_inverse" operator="out"/><feFlood xmlns="http://www.w3.org/2000/svg" flood-color="#EC268F" flood-opacity="1" result="pf_102_color"/><feComposite xmlns="http://www.w3.org/2000/svg" in="pf_102_color" in2="pf_102_inverse" operator="in" result="pf_102_shadow"/><feComposite xmlns="http://www.w3.org/2000/svg" in="pf_102_shadow" in2="_out_wuX3pCyvWyayGyoWvVQyEj4WNkh63QHW" operator="over" result="_out_bQWn6xEJHYTzFKTx55LMLHgwvQ5EIlsx"/><feMerge><feMergeNode in="_out_bQWn6xEJHYTzFKTx55LMLHgwvQ5EIlsx"/></feMerge></filter></defs><g filter="url(#IWjlJOQ09UipE5w9AWiZZZC1fDEe5Yaw)"><text transform="matrix(1,0,0,1,522.7,651)" style="font-family:'Dancing Script';font-weight:400;font-size:550px;font-style:normal;fill:#ec268f;stroke:none;">ensualy</text></g><defs><filter id="pe7bdcSANgbCevLdEl1Lnkn7x1dZctXp" x="-200%" y="-200%" width="400%" height="400%" filterUnits="objectBoundingBox" color-interpolation-filters="sRGB"><feGaussianBlur xmlns="http://www.w3.org/2000/svg" in="SourceGraphic" stdDeviation="2.146804531419514"/><feOffset xmlns="http://www.w3.org/2000/svg" dx="-5" dy="10" result="pf_100_offsetBlur"/><feFlood xmlns="http://www.w3.org/2000/svg" flood-color="#6A009E" flood-opacity="1"/><feComposite xmlns="http://www.w3.org/2000/svg" in2="pf_100_offsetBlur" operator="in" result="pf_100_dropShadow"/><feBlend xmlns="http://www.w3.org/2000/svg" in="SourceGraphic" in2="pf_100_dropShadow" mode="normal" result="_out_LwTFaNn6LpseAyH9YhQFd6o7BqtTUQtp"/><feOffset xmlns="http://www.w3.org/2000/svg" in="_out_LwTFaNn6LpseAyH9YhQFd6o7BqtTUQtp" dx="-10" dy="0"/><feGaussianBlur xmlns="http://www.w3.org/2000/svg" stdDeviation="2.146804531419514" result="pf_101_offsetBlur"/><feComposite xmlns="http://www.w3.org/2000/svg" in="_out_LwTFaNn6LpseAyH9YhQFd6o7BqtTUQtp" in2="pf_101_offsetBlur" result="pf_101_inverse" operator="out"/><feFlood xmlns="http://www.w3.org/2000/svg" flood-color="#F9C2DF" flood-opacity="1" result="pf_101_color"/><feComposite xmlns="http://www.w3.org/2000/svg" in="pf_101_color" in2="pf_101_inverse" operator="in" result="pf_101_shadow"/><feComposite xmlns="http://www.w3.org/2000/svg" in="pf_101_shadow" in2="_out_LwTFaNn6LpseAyH9YhQFd6o7BqtTUQtp" operator="over" result="_out_3TUbulatduotoo4eCypeDAhLnAMQHrxE"/><feOffset xmlns="http://www.w3.org/2000/svg" in="_out_3TUbulatduotoo4eCypeDAhLnAMQHrxE" dx="-5" dy="0"/><feGaussianBlur xmlns="http://www.w3.org/2000/svg" stdDeviation="2.146804531419514" result="pf_102_offsetBlur"/><feComposite xmlns="http://www.w3.org/2000/svg" in="_out_3TUbulatduotoo4eCypeDAhLnAMQHrxE" in2="pf_102_offsetBlur" result="pf_102_inverse" operator="out"/><feFlood xmlns="http://www.w3.org/2000/svg" flood-color="#EC268F" flood-opacity="1" result="pf_102_color"/><feComposite xmlns="http://www.w3.org/2000/svg" in="pf_102_color" in2="pf_102_inverse" operator="in" result="pf_102_shadow"/><feComposite xmlns="http://www.w3.org/2000/svg" in="pf_102_shadow" in2="_out_3TUbulatduotoo4eCypeDAhLnAMQHrxE" operator="over" result="_out_FCF98JKrVJ0xzleJZTi4IyEANtXinbXr"/><feMerge><feMergeNode in="_out_FCF98JKrVJ0xzleJZTi4IyEANtXinbXr"/></feMerge></filter></defs><g filter="url(#pe7bdcSANgbCevLdEl1Lnkn7x1dZctXp)"><text transform="matrix(1,0,0,1,873.675,1045)" style="font-family:'Dancing Script';font-weight:400;font-size:450px;font-style:normal;fill:#ec268f;stroke:none;">Bronze</text></g></g></svg>