<?xml version="1.0" encoding="iso-8859-1"?>
<!-- Generator: Adobe Illustrator 19.0.0, SVG Export Plug-In . SVG Version: 6.00 Build 0)  -->
<svg version="1.1" id="Layer_1" xmlns="http://www.w3.org/2000/svg" xmlns:xlink="http://www.w3.org/1999/xlink" x="0px" y="0px"
	 viewBox="0 0 512 512" style="enable-background:new 0 0 512 512;" xml:space="preserve">
<g>
	<g>
		<path d="M458.27,241.884c-17.151-12.473-36.589-26.611-74.264-26.611c-37.675,0-57.115,14.137-74.264,26.611
			c-15.313,11.137-27.409,19.934-53.733,19.934c-26.326,0-38.422-8.797-53.737-19.934c-17.152-12.474-36.592-26.611-74.268-26.611
			s-57.117,14.137-74.268,26.611C38.421,253.021,26.325,261.818,0,261.818v34.909c37.676,0,57.116-14.137,74.267-26.611
			c15.315-11.137,27.411-19.934,53.737-19.934c26.325,0,38.421,8.797,53.737,19.934c17.151,12.474,36.592,26.611,74.268,26.611
			c37.675,0,57.115-14.137,74.264-26.611c15.313-11.137,27.409-19.934,53.733-19.934c26.323,0,38.419,8.797,53.732,19.934
			c17.15,12.474,36.588,26.611,74.262,26.611v-34.909C485.679,261.818,473.583,253.021,458.27,241.884z"/>
	</g>
</g>
<g>
	<g>
		<path d="M458.27,358.248c-17.151-12.473-36.589-26.611-74.264-26.611c-37.675,0-57.115,14.137-74.264,26.611
			c-15.313,11.137-27.409,19.934-53.733,19.934c-26.326,0-38.422-8.797-53.737-19.934c-17.152-12.474-36.592-26.611-74.268-26.611
			s-57.117,14.137-74.268,26.611C38.421,369.385,26.325,378.182,0,378.182v34.909c37.676,0,57.116-14.137,74.267-26.611
			c15.315-11.137,27.411-19.934,53.737-19.934c26.325,0,38.421,8.797,53.737,19.934c17.151,12.474,36.592,26.611,74.268,26.611
			c37.675,0,57.115-14.137,74.264-26.611c15.313-11.137,27.409-19.934,53.733-19.934c26.323,0,38.419,8.797,53.732,19.934
			c17.15,12.474,36.588,26.611,74.262,26.611v-34.909C485.679,378.182,473.583,369.385,458.27,358.248z"/>
	</g>
</g>
<g>
	<g>
		<path d="M458.27,125.52c-17.151-12.473-36.589-26.611-74.264-26.611c-37.675,0-57.115,14.137-74.264,26.611
			c-15.313,11.137-27.409,19.934-53.733,19.934c-26.326,0-38.422-8.797-53.737-19.934c-17.152-12.474-36.592-26.611-74.268-26.611
			s-57.117,14.137-74.268,26.611C38.421,136.657,26.325,145.455,0,145.455v34.909c37.676,0,57.116-14.137,74.267-26.611
			c15.315-11.137,27.411-19.934,53.737-19.934c26.325,0,38.421,8.797,53.737,19.934c17.151,12.474,36.592,26.611,74.268,26.611
			c37.675,0,57.115-14.137,74.264-26.611c15.313-11.137,27.409-19.934,53.733-19.934c26.323,0,38.419,8.797,53.732,19.934
			c17.15,12.474,36.588,26.611,74.262,26.611v-34.909C485.679,145.455,473.583,136.657,458.27,125.52z"/>
	</g>
</g>
<g>
</g>
<g>
</g>
<g>
</g>
<g>
</g>
<g>
</g>
<g>
</g>
<g>
</g>
<g>
</g>
<g>
</g>
<g>
</g>
<g>
</g>
<g>
</g>
<g>
</g>
<g>
</g>
<g>
</g>
</svg>
